<?xml version="1.0" encoding="UTF-8" standalone="no"?>
<!-- Created with Inkscape (http://www.inkscape.org/) -->

<svg
   width="101.6mm"
   height="128.5mm"
   viewBox="0 0 101.6 128.5"
   version="1.1"
   id="svg1"
   inkscape:version="1.4 (e7c3feb1, 2024-10-09)"
   sodipodi:docname="Multipole.svg"
   xmlns:inkscape="http://www.inkscape.org/namespaces/inkscape"
   xmlns:sodipodi="http://sodipodi.sourceforge.net/DTD/sodipodi-0.dtd"
   xmlns="http://www.w3.org/2000/svg"
   xmlns:svg="http://www.w3.org/2000/svg">
  <sodipodi:namedview
     id="namedview1"
     pagecolor="#ffffff"
     bordercolor="#000000"
     borderopacity="0.25"
     inkscape:showpageshadow="2"
     inkscape:pageopacity="0.0"
     inkscape:pagecheckerboard="0"
     inkscape:deskcolor="#d1d1d1"
     inkscape:document-units="mm"
     inkscape:zoom="1.2711951"
     inkscape:cx="183.29209"
     inkscape:cy="184.47208"
     inkscape:window-width="1200"
     inkscape:window-height="1186"
     inkscape:window-x="557"
     inkscape:window-y="25"
     inkscape:window-maximized="0"
     inkscape:current-layer="layer2" />
  <defs
     id="defs1" />
  <g
     inkscape:groupmode="layer"
     id="layer2"
     inkscape:label="Art">
    <rect
       style="fill:#ffff00;stroke-width:0.0790001"
       id="rect11"
       width="117.80581"
       height="152.56476"
       x="-6.0359869"
       y="-9.3661871"
       inkscape:label="Panel" />
    <path
       style="font-weight:bold;font-size:4.23333px;font-family:'Gill Sans';-inkscape-font-specification:'Gill Sans Bold';fill:#1a1a1a;stroke-width:0.079"
       d="M 4.3015832,103.5376 H 3.4375539 v -2.86494 h 0.8640293 z"
       id="path8" />
    <path
       style="font-weight:bold;font-size:4.23333px;font-family:'Gill Sans';-inkscape-font-specification:'Gill Sans Bold';fill:#1a1a1a;stroke-width:0.079"
       d="m 7.1499857,103.5376 h -0.74414 v -1.13481 q 0,-0.17363 -0.057878,-0.30179 -0.05581,-0.13022 -0.2480467,-0.13022 -0.09095,0 -0.1612303,0.0351 -0.068213,0.0331 -0.1240233,0.0868 -0.053743,0.0537 -0.09095,0.10335 -0.037207,0.0496 -0.076481,0.10542 v 1.2361 h -0.74414 v -2.10426 h 0.74414 v 0.30179 q 0.1756997,-0.1881 0.3513994,-0.26252 0.1777668,-0.0765 0.3948076,-0.0765 0.7565424,0 0.7565424,0.90537 z m 4.0018193,0 H 8.9751955 v -2.86494 h 0.8640293 v 2.17868 h 1.3125802 z"
       id="path9" />
    <path
       style="font-weight:bold;font-size:4.23333px;font-family:'Gill Sans';-inkscape-font-specification:'Gill Sans Bold';fill:#1a1a1a;stroke-width:0.079"
       d="M 3.9967211,117.0732 H 3.1326919 v -2.86494 h 0.8640292 z"
       id="path10" />
    <path
       style="font-weight:bold;font-size:4.23333px;font-family:'Gill Sans';-inkscape-font-specification:'Gill Sans Bold';fill:#1a1a1a;stroke-width:0.079"
       d="m 6.8451236,117.0732 h -0.74414 v -1.13481 q 0,-0.17363 -0.057878,-0.30179 -0.05581,-0.13023 -0.2480467,-0.13023 -0.09095,0 -0.1612303,0.0351 -0.068213,0.0331 -0.1240233,0.0868 -0.053743,0.0537 -0.09095,0.10335 -0.037207,0.0496 -0.076481,0.10542 v 1.2361 h -0.74414 v -2.10426 h 0.74414 v 0.30179 q 0.1756997,-0.1881 0.3513994,-0.26252 0.1777668,-0.0765 0.3948076,-0.0765 0.7565423,0 0.7565423,0.90537 z m 4.5991984,0 h -0.928108 l -0.225309,-0.50849 q -0.124023,-0.27906 -0.223242,-0.40721 -0.099219,-0.13023 -0.1943032,-0.16537 -0.093018,-0.0372 -0.2418455,-0.0372 h -0.097152 v 1.11827 H 8.6703335 v -2.86494 H 10.14001 q 0.355534,0 0.58291,0.1447 0.227376,0.14469 0.326594,0.3514 0.101286,0.2067 0.101286,0.39274 0,0.21704 -0.08475,0.36793 -0.08268,0.14883 -0.1757,0.21704 -0.09302,0.0682 -0.208772,0.13023 0.138492,0.0806 0.227376,0.19223 0.09095,0.10956 0.245979,0.44649 z m -1.174087,-1.95957 q 0,-0.19843 -0.130225,-0.27698 -0.130224,-0.0786 -0.4237464,-0.0786 H 9.5343627 v 0.6904 h 0.186035 q 0.3162593,0 0.4320143,-0.0682 0.117823,-0.0703 0.117823,-0.26665 z"
       id="path11" />
    <path
       d="M 49.875851,8.0891523 H 48.307833 V 5.0769065 L 46.893615,6.8212331 H 46.769824 L 45.351855,5.0769065 V 8.0891523 H 43.828852 V 2.8899334 h 1.42172 L 46.8486,4.8405783 48.454131,2.8899334 h 1.42172 z m 5.116692,0 H 53.638345 V 7.5452225 q -0.285094,0.3076017 -0.600198,0.4614026 -0.311353,0.1500496 -0.750248,0.1500496 -0.866537,0 -1.121621,-0.5026662 Q 50.911193,7.147591 50.911193,6.5136315 V 4.2703898 h 1.354198 v 2.0631821 q 0,0.311353 0.101284,0.5476811 0.105034,0.2325769 0.450148,0.2325769 0.296348,0 0.468905,-0.1688058 0.172558,-0.1688058 0.352617,-0.4313926 V 4.2703898 h 1.354198 z m 2.284505,0 H 55.92285 V 2.8899334 h 1.354198 z m 3.942553,-0.2213231 q -0.210069,0.1012834 -0.581442,0.1950645 -0.367621,0.093781 -0.705233,0.093781 -1.459232,0 -1.459232,-1.4254713 V 5.2081999 H 57.862241 V 4.9718717 L 59.67409,3.1262615 h 0.153801 v 1.1441283 h 1.290427 v 0.9378101 h -1.290427 v 1.2229043 q 0,0.2138207 0.02626,0.3451141 0.02626,0.1312934 0.146298,0.2213231 0.123791,0.086279 0.371373,0.086279 0.322607,0 0.84778,-0.2700893 z m 1.905631,-4.4789808 q 0,0.2363281 -0.168806,0.4013827 -0.168806,0.1650545 -0.401383,0.1650545 -0.157552,0 -0.288845,-0.075025 -0.127542,-0.075025 -0.202567,-0.2025669 -0.07503,-0.1312935 -0.07503,-0.2888455 0,-0.2325769 0.165055,-0.4013827 0.165054,-0.1688059 0.401382,-0.1688059 0.232577,0 0.401383,0.1688059 0.168806,0.1688058 0.168806,0.4013827 z m 0.108786,4.7003039 H 61.87982 V 4.2703898 h 1.354198 z m 5.124194,-1.9356399 q 0,0.3826265 -0.108786,0.7389943 -0.108786,0.3563678 -0.33386,0.6452133 -0.221323,0.2850943 -0.57394,0.4539001 -0.348865,0.1650546 -0.814019,0.1650546 -0.375124,0 -0.592696,-0.078776 Q 65.72109,7.9991226 65.50727,7.8678292 V 9.8259766 H 64.156823 V 4.2703898 h 1.350447 v 0.3451141 q 0.202567,-0.1763083 0.446397,-0.2925967 0.247582,-0.1200397 0.667721,-0.1200397 0.416388,0 0.81777,0.2063182 0.401383,0.2063182 0.660219,0.6452133 0.258835,0.4351439 0.258835,1.0991134 z m -1.42172,0.03001 q 0,-0.3451141 -0.108786,-0.5589348 -0.108786,-0.2175719 -0.281343,-0.3113529 -0.172557,-0.097532 -0.356368,-0.097532 -0.240079,0 -0.39388,0.078776 -0.153801,0.075025 -0.288845,0.1913132 v 1.4592325 q 0.07127,0.037512 0.150049,0.086278 0.08253,0.045015 0.161304,0.078776 0.08253,0.033761 0.172557,0.056269 0.09378,0.022508 0.198815,0.022508 0.318856,0 0.532676,-0.2700893 0.213821,-0.2700893 0.213821,-0.7352431 z m 6.339596,-0.0075 q 0,0.5701885 -0.247582,1.0165861 -0.247581,0.4463976 -0.742745,0.7052332 -0.491413,0.2588356 -1.200397,0.2588356 -0.708984,0 -1.204148,-0.2588356 -0.491413,-0.2588356 -0.738994,-0.7052332 -0.243831,-0.4463976 -0.243831,-1.0165861 0,-0.4313926 0.135045,-0.7840092 0.138795,-0.3526166 0.416387,-0.6227058 0.281343,-0.2738406 0.690228,-0.4201389 0.408886,-0.1462984 0.945313,-0.1462984 0.540179,0 0.952815,0.1500496 0.416388,0.1462984 0.686477,0.4126364 0.27384,0.2663381 0.412636,0.6227059 0.138796,0.3563678 0.138796,0.7877604 z m -1.42172,0 q 0,-0.4539 -0.198816,-0.7089844 -0.195064,-0.2588355 -0.570188,-0.2588355 -0.371373,0 -0.570189,0.2588355 -0.195064,0.2550844 -0.195064,0.7089844 0,0.4501489 0.198816,0.7127357 0.198815,0.2625868 0.566437,0.2625868 0.375124,0 0.570188,-0.2588356 0.198816,-0.2625868 0.198816,-0.7164869 z M 75.39929,8.0891523 H 74.045092 V 2.8899334 H 75.39929 Z M 80.245892,6.506129 h -2.689639 q 0.07878,0.3488653 0.386378,0.5701885 0.307601,0.2213232 0.69773,0.2213232 0.682726,0 1.507999,-0.3826265 v 0.8365265 q -0.296348,0.1538009 -0.720238,0.281343 -0.420139,0.123791 -1.072855,0.123791 -0.705233,0 -1.200397,-0.2625869 Q 76.659707,7.631501 76.412125,7.1813522 76.168294,6.7312034 76.168294,6.1610149 q 0,-0.5626861 0.243831,-1.0053324 0.247582,-0.4463976 0.742745,-0.6977307 0.495164,-0.2550843 1.200397,-0.2550843 0.465154,0 0.896547,0.202567 0.435143,0.1988157 0.712735,0.656467 0.281343,0.4539001 0.281343,1.1741382 z M 78.977973,5.8384082 q 0,-0.3676215 -0.183811,-0.5851935 -0.180059,-0.2213231 -0.521422,-0.2213231 -0.337612,0 -0.547681,0.2250744 -0.206318,0.2213232 -0.206318,0.5814422 z"
       id="text2"
       style="font-weight:bold;font-size:7.68254px;font-family:'Gill Sans';-inkscape-font-specification:'Gill Sans Bold';fill:#1a1a1a;stroke-width:0.191156"
       transform="scale(0.82549622,1.2113926)"
       aria-label="Multipole" />
    <path
       style="font-weight:bold;font-size:4.23333px;font-family:'Gill Sans';-inkscape-font-specification:'Gill Sans Bold';fill:#1a1a1a;stroke-width:0.079"
       d="m 7.3401463,32.16362 q -0.1777668,0.09302 -0.3638018,0.148828 -0.186035,0.05581 -0.3762041,0.07855 -0.188102,0.0248 -0.3906735,0.0248 -0.374137,0 -0.671793,-0.103352 Q 5.2420849,32.209095 5.022977,32.008591 4.8059362,31.806019 4.6963823,31.537302 4.5888954,31.266518 4.5888954,30.944057 q 0,-0.370003 0.1281574,-0.646988 0.1281575,-0.279053 0.3576006,-0.463021 0.2315102,-0.183968 0.5250321,-0.270784 0.295589,-0.08888 0.6221838,-0.08888 0.4878251,0 1.1058747,0.217041 v 0.760677 Q 7.1148373,30.319806 6.9060646,30.23299 q -0.2067055,-0.08888 -0.4878251,-0.08888 -0.2501137,0 -0.4671545,0.09922 -0.2170409,0.09922 -0.3493324,0.283187 -0.1322916,0.183968 -0.1322916,0.429947 0,0.217041 0.1157551,0.398942 0.1157552,0.179834 0.3203937,0.287321 0.2067055,0.10542 0.4650875,0.10542 0.2087726,0 0.3948076,-0.04961 0.186035,-0.05168 0.3121254,-0.113688 0.1281574,-0.06201 0.262516,-0.146761 z M 9.9570386,31.506296 H 8.4749598 q 0.043408,0.192236 0.2129067,0.314192 0.1694986,0.121957 0.3844724,0.121957 0.3762041,0 0.8309563,-0.21084 v 0.460953 q -0.1632974,0.08475 -0.3968747,0.15503 -0.2315102,0.06821 -0.5911779,0.06821 -0.3886064,0 -0.6614577,-0.144693 -0.2728514,-0.144694 -0.409277,-0.392741 -0.1343586,-0.248047 -0.1343586,-0.562239 0,-0.310058 0.1343586,-0.553971 0.1364256,-0.24598 0.409277,-0.384472 0.2728513,-0.14056 0.6614577,-0.14056 0.2563149,0 0.4940263,0.111621 0.2397785,0.109554 0.3927406,0.361735 0.1550291,0.250113 0.1550291,0.646988 z M 9.2583739,31.13836 q 0,-0.202571 -0.1012858,-0.322461 -0.099219,-0.121956 -0.2873207,-0.121956 -0.186035,0 -0.3017901,0.124024 -0.113688,0.121956 -0.113688,0.320393 z m 3.3114231,1.240233 h -0.74414 V 31.24378 q 0,-0.173633 -0.05788,-0.30179 -0.05581,-0.130225 -0.248046,-0.130225 -0.09095,0 -0.161231,0.03514 -0.06821,0.03307 -0.124023,0.08682 -0.05374,0.05374 -0.09095,0.103352 -0.03721,0.04961 -0.07648,0.10542 v 1.236099 h -0.74414 v -2.104262 h 0.74414 v 0.30179 q 0.1757,-0.188102 0.3514,-0.262516 0.177767,-0.07648 0.394807,-0.07648 0.756543,0 0.756543,0.90537 z m 2.10633,-0.121956 q -0.115755,0.05581 -0.320394,0.107487 -0.202571,0.05168 -0.388606,0.05168 -0.804085,0 -0.804085,-0.785481 v -0.839224 h -0.33693 V 30.66087 L 13.8245,29.643879 h 0.08475 v 0.630452 h 0.711067 v 0.516764 h -0.711067 v 0.67386 q 0,0.117822 0.01447,0.190169 0.01447,0.07235 0.08062,0.121956 0.06821,0.04754 0.204638,0.04754 0.177767,0 0.467155,-0.148828 z m 2.4846,-0.750341 h -1.482079 q 0.04341,0.192236 0.212907,0.314192 0.169498,0.121957 0.384472,0.121957 0.376204,0 0.830956,-0.21084 v 0.460953 q -0.163297,0.08475 -0.396874,0.15503 -0.231511,0.06821 -0.591178,0.06821 -0.388607,0 -0.661458,-0.144693 -0.272851,-0.144694 -0.409277,-0.392741 -0.134359,-0.248047 -0.134359,-0.562239 0,-0.310058 0.134359,-0.553971 0.136426,-0.24598 0.409277,-0.384472 0.272851,-0.14056 0.661458,-0.14056 0.256315,0 0.494026,0.111621 0.239779,0.109554 0.392741,0.361735 0.155029,0.250113 0.155029,0.646988 z M 16.462062,31.13836 q 0,-0.202571 -0.101286,-0.322461 -0.09922,-0.121956 -0.28732,-0.121956 -0.186035,0 -0.301791,0.124024 -0.113688,0.121956 -0.113688,0.320393 z m 2.914549,-0.750341 -0.274919,0.746207 q -0.169498,-0.16123 -0.343131,-0.16123 -0.157096,0 -0.272851,0.107487 -0.113688,0.105419 -0.219108,0.39274 v 0.90537 h -0.74414 v -2.104262 h 0.74414 v 0.508496 q 0.07028,-0.188102 0.248047,-0.365869 0.177766,-0.179834 0.417545,-0.179834 0.12609,0 0.219108,0.03721 0.09508,0.03721 0.225309,0.113688 z m 3.669024,0.830956 h -1.188557 v 1.159618 h -0.864029 v -2.864939 h 2.052586 v 0.574642 h -1.188557 v 0.553971 h 1.188557 z m 2.308901,-0.830956 -0.274918,0.746207 q -0.169499,-0.16123 -0.343132,-0.16123 -0.157096,0 -0.272851,0.107487 -0.113688,0.105419 -0.219108,0.39274 v 0.90537 h -0.74414 v -2.104262 h 0.74414 v 0.508496 q 0.07028,-0.188102 0.248047,-0.365869 0.177767,-0.179834 0.417545,-0.179834 0.12609,0 0.219108,0.03721 0.09509,0.03721 0.225309,0.113688 z m 2.213816,1.118277 h -1.482079 q 0.04341,0.192236 0.212907,0.314192 0.169498,0.121957 0.384472,0.121957 0.376204,0 0.830957,-0.21084 v 0.460953 q -0.163298,0.08475 -0.396875,0.15503 -0.23151,0.06821 -0.591178,0.06821 -0.388606,0 -0.661458,-0.144693 -0.272851,-0.144694 -0.409277,-0.392741 -0.134358,-0.248047 -0.134358,-0.562239 0,-0.310058 0.134358,-0.553971 0.136426,-0.24598 0.409277,-0.384472 0.272852,-0.14056 0.661458,-0.14056 0.256315,0 0.494026,0.111621 0.239779,0.109554 0.392741,0.361735 0.155029,0.250113 0.155029,0.646988 z M 26.869687,31.13836 q 0,-0.202571 -0.101286,-0.322461 -0.09922,-0.121956 -0.28732,-0.121956 -0.186035,0 -0.30179,0.124024 -0.113688,0.121956 -0.113688,0.320393 z m 3.290752,2.19728 h -0.746207 v -1.079003 q -0.08268,0.05168 -0.142627,0.08062 -0.05788,0.02894 -0.165364,0.05374 -0.10542,0.0248 -0.254248,0.0248 -0.332796,0 -0.562239,-0.157096 -0.229443,-0.157096 -0.33693,-0.40721 -0.107487,-0.25218 -0.107487,-0.539501 0,-0.365869 0.142627,-0.605647 0.142627,-0.241846 0.363801,-0.355534 0.221175,-0.113688 0.450619,-0.113688 0.165364,0 0.285253,0.03927 0.119889,0.03721 0.192236,0.08475 0.07441,0.04754 0.134359,0.103353 v -0.190169 h 0.746207 z m -0.746207,-1.587498 v -0.804085 q -0.06408,-0.05995 -0.152962,-0.103353 -0.08888,-0.04547 -0.223242,-0.04547 -0.163297,0 -0.287321,0.128157 -0.121956,0.126091 -0.121956,0.405143 0,0.256315 0.117822,0.405143 0.117822,0.148828 0.291455,0.148828 0.09922,0 0.167431,-0.02687 0.06821,-0.02894 0.208773,-0.107486 z"
       id="text4"
       aria-label="Center Freq" />
    <path
       style="font-weight:bold;font-size:4.23333px;font-family:'Gill Sans';-inkscape-font-specification:'Gill Sans Bold';fill:#1a1a1a;stroke-width:0.079"
       d="m 17.786579,103.49177 q -0.177767,0.093 -0.363802,0.14883 -0.186035,0.0558 -0.376204,0.0785 -0.188102,0.0248 -0.390673,0.0248 -0.374138,0 -0.671794,-0.10335 -0.295588,-0.10336 -0.514696,-0.30386 -0.217041,-0.20257 -0.326595,-0.47129 -0.107487,-0.27078 -0.107487,-0.59325 0,-0.37 0.128157,-0.64698 0.128158,-0.27906 0.357601,-0.46302 0.23151,-0.18397 0.525032,-0.27079 0.295589,-0.0889 0.622184,-0.0889 0.487825,0 1.105875,0.21704 v 0.76068 q -0.212907,-0.1323 -0.42168,-0.21911 -0.206705,-0.0889 -0.487825,-0.0889 -0.250114,0 -0.467154,0.0992 -0.217041,0.0992 -0.349333,0.28319 -0.132291,0.18397 -0.132291,0.42995 0,0.21704 0.115755,0.39894 0.115755,0.17983 0.320393,0.28732 0.206706,0.10542 0.465088,0.10542 0.208772,0 0.394807,-0.0496 0.186035,-0.0517 0.312126,-0.11369 0.128157,-0.062 0.262516,-0.14676 z m 1.322915,-0.19224 q 0,0.18604 -0.128157,0.31626 -0.12609,0.12816 -0.312125,0.12816 -0.183968,0 -0.31626,-0.13023 -0.132291,-0.13022 -0.132291,-0.31419 0,-0.18603 0.132291,-0.31419 0.132292,-0.13023 0.31626,-0.13023 0.115755,0 0.219108,0.06 0.105419,0.0599 0.163297,0.16123 0.05788,0.10129 0.05788,0.22324 z m 2.559015,-0.75241 h -1.188557 v 1.15962 h -0.864029 v -2.86494 h 2.052586 v 0.57464 h -1.188557 v 0.55397 h 1.188557 z"
       id="text4-4"
       aria-label="C.F" />
    <path
       style="font-weight:bold;font-size:4.23333px;font-family:'Gill Sans';-inkscape-font-specification:'Gill Sans Bold';fill:#1a1a1a;stroke-width:0.079"
       d="m 32.651414,102.87697 q 0,0.37 -0.254248,0.59118 -0.25218,0.22117 -0.706933,0.22117 h -1.655711 v -2.86494 h 1.384927 q 0.268717,0 0.467155,0.0517 0.200504,0.0517 0.32246,0.14263 0.121957,0.0889 0.181901,0.21084 0.05994,0.12195 0.05994,0.26665 0,0.15709 -0.06201,0.29145 -0.06201,0.13229 -0.155029,0.21911 -0.09095,0.0847 -0.183968,0.11989 0.293522,0.11575 0.446484,0.29352 0.155029,0.1757 0.155029,0.45682 z m -1.008723,-1.22783 q 0,-0.20671 -0.136426,-0.27492 -0.136425,-0.0682 -0.425813,-0.0682 h -0.181901 v 0.68626 h 0.186035 q 0.295589,0 0.425814,-0.0682 0.132291,-0.0682 0.132291,-0.27492 z m 0.14056,1.19269 q 0,-0.36794 -0.5333,-0.36794 h -0.3514 v 0.73381 h 0.3514 q 0.5333,0 0.5333,-0.36587 z m 6.062674,-2.01745 -1.240234,2.90215 h -0.500227 l -0.74414,-1.68878 -0.762743,1.68878 h -0.504362 l -1.215429,-2.90215 h 0.895035 l 0.595312,1.5875 0.682129,-1.5875 h 0.618049 l 0.669726,1.5875 0.622184,-1.5875 z"
       id="text4-4-9"
       aria-label="BW" />
    <path
       style="font-weight:bold;font-size:4.23333px;font-family:'Gill Sans';-inkscape-font-specification:'Gill Sans Bold';fill:#1a1a1a;stroke-width:0.079"
       d="m 50.684727,103.78398 h -0.928108 l -0.225309,-0.50849 q -0.124023,-0.27906 -0.223242,-0.40721 -0.09922,-0.13023 -0.194303,-0.16537 -0.09302,-0.0372 -0.241845,-0.0372 h -0.09715 v 1.11828 h -0.864029 v -2.86494 h 1.469676 q 0.355534,0 0.58291,0.1447 0.227376,0.14469 0.326595,0.3514 0.101285,0.2067 0.101285,0.39274 0,0.21704 -0.08475,0.36793 -0.08268,0.14883 -0.1757,0.21704 -0.09302,0.0682 -0.208772,0.13023 0.138493,0.0806 0.227376,0.19223 0.09095,0.10956 0.24598,0.44649 z m -1.174087,-1.95957 q 0,-0.19843 -0.130225,-0.27698 -0.130224,-0.0786 -0.423746,-0.0786 h -0.181901 v 0.6904 h 0.186035 q 0.31626,0 0.432015,-0.0682 0.117822,-0.0703 0.117822,-0.26665 z m 3.542933,1.08727 h -1.482079 q 0.04341,0.19224 0.212907,0.3142 0.169499,0.12195 0.384472,0.12195 0.376204,0 0.830957,-0.21084 v 0.46096 q -0.163298,0.0847 -0.396875,0.15503 -0.23151,0.0682 -0.591178,0.0682 -0.388606,0 -0.661458,-0.1447 -0.272851,-0.14469 -0.409277,-0.39274 -0.134358,-0.24804 -0.134358,-0.56224 0,-0.31005 0.134358,-0.55397 0.136426,-0.24598 0.409277,-0.38447 0.272852,-0.14056 0.661458,-0.14056 0.256315,0 0.494026,0.11162 0.239779,0.10956 0.392741,0.36174 0.155029,0.25011 0.155029,0.64699 z m -0.698665,-0.36793 q 0,-0.20257 -0.101285,-0.32246 -0.09922,-0.12196 -0.287321,-0.12196 -0.186035,0 -0.30179,0.12402 -0.113688,0.12196 -0.113688,0.3204 z m 2.70991,0.62632 q 0,0.28938 -0.212907,0.47128 -0.21084,0.17984 -0.628385,0.17984 -0.233577,0 -0.415478,-0.0413 -0.181901,-0.0434 -0.396875,-0.12196 v -0.52917 q 0.188102,0.10749 0.326595,0.1633 0.138493,0.0558 0.303857,0.0558 0.279053,0 0.279053,-0.15296 0,-0.0517 -0.04134,-0.0909 -0.03927,-0.0413 -0.14056,-0.091 -0.09922,-0.0517 -0.26665,-0.12196 -0.206706,-0.0909 -0.3514,-0.24391 -0.144694,-0.15296 -0.144694,-0.37414 0,-0.15709 0.09508,-0.30179 0.09715,-0.14469 0.291455,-0.23564 0.194303,-0.093 0.469221,-0.093 0.06615,0 0.167432,0.0103 0.103353,0.008 0.258382,0.0475 0.157096,0.0393 0.297656,0.11162 v 0.5147 q -0.06615,-0.0393 -0.111621,-0.0662 -0.04341,-0.0269 -0.117822,-0.0599 -0.07441,-0.0331 -0.1757,-0.0579 -0.09922,-0.0269 -0.204638,-0.0269 -0.128158,0 -0.1757,0.0496 -0.04754,0.0496 -0.04754,0.0992 0,0.0517 0.04961,0.0971 0.04961,0.0434 0.221175,0.10955 0.248046,0.0951 0.396874,0.19637 0.148828,0.0992 0.21084,0.21911 0.06408,0.11989 0.06408,0.28319 z"
       id="text4-4-9-6"
       aria-label="Res" />
    <path
       style="font-weight:bold;font-size:4.23333px;font-family:'Gill Sans';-inkscape-font-specification:'Gill Sans Bold';fill:#1a1a1a;stroke-width:0.079"
       d="m 66.88252,103.65004 h -0.768944 l -1.486213,-1.59577 v 1.59577 h -0.855761 v -2.86494 h 0.766877 l 1.482079,1.5875 v -1.5875 h 0.861962 z m 2.81533,0 h -0.746207 v -0.29972 q -0.157097,0.1695 -0.330729,0.25424 -0.171566,0.0827 -0.413411,0.0827 -0.47749,0 -0.61805,-0.27699 -0.14056,-0.27905 -0.14056,-0.62838 v -1.2361 H 68.1951 v 1.13688 q 0,0.17156 0.05581,0.30179 0.05788,0.12816 0.248047,0.12816 0.163297,0 0.258381,-0.093 0.09508,-0.093 0.194304,-0.23771 v -1.2361 h 0.746207 z m 4.225061,0 h -0.74414 v -1.12241 q 0,-0.22324 -0.07441,-0.3328 -0.07235,-0.11162 -0.23151,-0.11162 -0.155029,0 -0.254248,0.0951 -0.09922,0.093 -0.198437,0.23564 v 1.2361 h -0.74414 v -1.12241 q 0,-0.21291 -0.06821,-0.32866 -0.06821,-0.11576 -0.241845,-0.11576 -0.08268,0 -0.152962,0.0331 -0.06821,0.0331 -0.111621,0.0744 -0.04341,0.0413 -0.10542,0.12195 -0.06201,0.0806 -0.07855,0.10129 v 1.2361 h -0.74414 v -2.10426 h 0.74414 v 0.30179 q 0.167431,-0.17777 0.341064,-0.25838 0.173632,-0.0806 0.401009,-0.0806 0.107486,0 0.204638,0.0207 0.09715,0.0186 0.190169,0.0661 0.09508,0.0475 0.171566,0.13022 0.07648,0.0827 0.121956,0.19224 0.179834,-0.20257 0.37207,-0.30593 0.194303,-0.10335 0.446484,-0.10335 0.252181,0 0.421679,0.10129 0.171566,0.10128 0.252181,0.29352 0.08268,0.19017 0.08268,0.46302 z m 4.301543,-1.9637 q 0,0.15916 -0.05581,0.31212 -0.05374,0.1509 -0.1757,0.28319 -0.121956,0.13022 -0.330728,0.21291 -0.206706,0.0806 -0.487826,0.0806 h -0.566373 v 1.07487 h -0.864029 v -2.86494 h 1.430402 q 0.28112,0 0.487826,0.0827 0.208772,0.0827 0.330728,0.21498 0.121957,0.13229 0.1757,0.28732 0.05581,0.15503 0.05581,0.31626 z m -0.880566,0.004 q 0,-0.20464 -0.121956,-0.27905 -0.11989,-0.0765 -0.432015,-0.0765 h -0.181901 v 0.69039 h 0.186035 q 0.214974,0 0.330729,-0.0269 0.115755,-0.0269 0.167432,-0.0992 0.05168,-0.0723 0.05168,-0.20877 z m 1.554426,1.55236 q 0,0.18603 -0.128158,0.31626 -0.12609,0.12816 -0.312125,0.12816 -0.183968,0 -0.31626,-0.13023 -0.132291,-0.13022 -0.132291,-0.31419 0,-0.18604 0.132291,-0.31419 0.132292,-0.13023 0.31626,-0.13023 0.115755,0 0.219108,0.06 0.10542,0.0599 0.163297,0.16123 0.05788,0.10128 0.05788,0.22324 z"
       id="text4-4-9-6-1"
       aria-label="Num P." />
    <path
       style="font-weight:bold;font-size:4.23333px;font-family:'Gill Sans';-inkscape-font-specification:'Gill Sans Bold';fill:#1a1a1a;stroke-width:0.079"
       d="m 17.091508,116.92006 q -0.09302,0.0351 -0.159163,0.0579 -0.06615,0.0227 -0.128157,0.0413 -0.05994,0.0186 -0.1757,0.0476 -0.19637,0.0455 -0.392741,0.0682 -0.194303,0.0248 -0.411344,0.0248 -0.436148,0 -0.806151,-0.15916 -0.370003,-0.15916 -0.593245,-0.49403 -0.221175,-0.33486 -0.221175,-0.82268 0,-0.3142 0.113688,-0.61599 0.115755,-0.30385 0.351399,-0.48575 0.194303,-0.1509 0.392741,-0.22945 0.200504,-0.0806 0.390673,-0.10748 0.190169,-0.0269 0.419613,-0.0269 0.378271,0 0.62425,0.0579 0.24598,0.0558 0.539502,0.14883 v 0.67799 q -0.194303,-0.11368 -0.411344,-0.19017 -0.217041,-0.0765 -0.541569,-0.0765 -0.374137,0 -0.599446,0.14263 -0.223242,0.14056 -0.312125,0.33693 -0.08682,0.19637 -0.08682,0.38034 0,0.21704 0.101286,0.40101 0.101286,0.1819 0.305924,0.29352 0.204639,0.10955 0.494027,0.10955 0.165364,0 0.351399,-0.0434 v -0.33693 h -0.388606 v -0.57671 h 1.143081 z m 2.740916,0.0971 q -0.163297,0.0641 -0.30179,0.10335 -0.138493,0.0393 -0.332796,0.0393 -0.183968,0 -0.256315,-0.0641 -0.07235,-0.0661 -0.103353,-0.15917 -0.119889,0.0971 -0.26665,0.16123 -0.146761,0.062 -0.384472,0.062 -0.229443,0 -0.37207,-0.0785 -0.14056,-0.0806 -0.198438,-0.20051 -0.05581,-0.12195 -0.05581,-0.25011 0,-0.19431 0.09715,-0.3204 0.09922,-0.12815 0.264583,-0.20877 0.165364,-0.0806 0.438215,-0.16743 0.15503,-0.0496 0.233578,-0.0744 0.08062,-0.0269 0.119889,-0.0413 0.03927,-0.0145 0.08268,-0.0372 0,-0.15296 -0.06201,-0.23978 -0.06201,-0.0868 -0.268718,-0.0868 -0.243912,0 -0.452685,0.10749 -0.208772,0.10749 -0.382405,0.27699 v -0.57051 q 0.138493,-0.0992 0.299723,-0.16123 0.16123,-0.0641 0.33693,-0.0951 0.1757,-0.031 0.355534,-0.031 0.456819,0 0.686262,0.17776 0.23151,0.1757 0.23151,0.48576 v 0.81236 q 0,0.11575 0.02067,0.17363 0.02274,0.0558 0.08061,0.0558 0.07028,0 0.190169,-0.06 z m -1.035595,-0.40308 v -0.49816 q -0.264583,0.10749 -0.386539,0.1943 -0.121956,0.0847 -0.121956,0.23151 0,0.10542 0.05994,0.16123 0.06201,0.0558 0.142627,0.0558 0.07648,0 0.150895,-0.0414 0.07648,-0.0434 0.155029,-0.10335 z m 3.640085,-0.5581 q 0,0.21084 -0.05995,0.40721 -0.05994,0.19637 -0.183968,0.35553 -0.121956,0.1571 -0.316259,0.25011 -0.192237,0.091 -0.448551,0.091 -0.206706,0 -0.326595,-0.0434 -0.117822,-0.0434 -0.235645,-0.11576 v 1.079 h -0.74414 v -3.06131 h 0.74414 v 0.19017 q 0.111621,-0.0971 0.24598,-0.16123 0.136426,-0.0661 0.367936,-0.0661 0.229443,0 0.450618,0.11369 0.221175,0.11368 0.363802,0.35553 0.142627,0.23978 0.142627,0.60565 z m -0.783414,0.0165 q 0,-0.19017 -0.05995,-0.30799 -0.05994,-0.11989 -0.155029,-0.17156 -0.09509,-0.0538 -0.19637,-0.0538 -0.132292,0 -0.217041,0.0434 -0.08475,0.0413 -0.159164,0.10542 v 0.80409 q 0.03927,0.0207 0.08268,0.0475 0.04548,0.0248 0.08888,0.0434 0.04547,0.0186 0.09508,0.031 0.05168,0.0124 0.109554,0.0124 0.175699,0 0.293521,-0.14882 0.117823,-0.14883 0.117823,-0.40515 z"
       id="text4-4-9-6-1-9"
       aria-label="Gap" />
    <path
       style="font-weight:bold;font-size:4.23333px;font-family:'Gill Sans';-inkscape-font-specification:'Gill Sans Bold';fill:#1a1a1a;stroke-width:0.079"
       d="m 33.420654,117.63813 h -0.768945 l -1.486213,-1.59577 v 1.59577 h -0.855761 v -2.86494 h 0.766878 l 1.482079,1.5875 v -1.5875 h 0.861962 z m 2.536277,-2.90421 -1.55856,2.94142 H 33.8444 l 1.556493,-2.94142 z m 3.038572,2.09186 q 0,0.37 -0.254248,0.59118 -0.252181,0.22117 -0.706933,0.22117 H 36.37861 v -2.86494 h 1.384928 q 0.268717,0 0.467154,0.0517 0.200505,0.0517 0.322461,0.14262 0.121956,0.0889 0.181901,0.21084 0.05994,0.12196 0.05994,0.26665 0,0.1571 -0.06201,0.29146 -0.06201,0.13229 -0.155029,0.21911 -0.09095,0.0847 -0.183968,0.11989 0.293522,0.11575 0.446484,0.29352 0.155029,0.1757 0.155029,0.45682 z m -1.008723,-1.22783 q 0,-0.20671 -0.136426,-0.27492 -0.136426,-0.0682 -0.425813,-0.0682 H 37.24264 v 0.68626 h 0.186035 q 0.295589,0 0.425813,-0.0682 0.132292,-0.0682 0.132292,-0.27491 z m 0.140559,1.19269 q 0,-0.36794 -0.5333,-0.36794 H 37.24264 v 0.73381 h 0.351399 q 0.5333,0 0.5333,-0.36587 z"
       id="text4-4-9-6-1-9-1"
       aria-label="N/B" />
    <path
       style="font-weight:bold;font-size:4.23333px;font-family:'Gill Sans';-inkscape-font-specification:'Gill Sans Bold';fill:#1a1a1a;stroke-width:0.079"
       d="m 48.425099,117.11597 h -0.8847 l -0.233577,-0.58085 h -1.244368 l -0.237711,0.58085 h -0.8847 l 1.267105,-2.86494 h 0.95498 z m -1.316715,-1.07901 -0.419612,-1.04593 -0.423746,1.04593 z m 3.513995,-1.82521 -1.55856,2.94142 h -0.553971 l 1.556493,-2.94142 z m 3.487123,1.46968 q 0,0.40101 -0.186035,0.73794 -0.183968,0.33693 -0.549837,0.53537 -0.365869,0.19843 -0.890901,0.19843 -0.531233,0 -0.899169,-0.2067 -0.367936,-0.20671 -0.54777,-0.54364 -0.177767,-0.33693 -0.177767,-0.7214 0,-0.38654 0.177767,-0.7214 0.177767,-0.33693 0.545703,-0.54157 0.370003,-0.20671 0.901236,-0.20671 0.396875,0 0.706933,0.11783 0.312125,0.11782 0.51263,0.32039 0.200504,0.2005 0.303857,0.46922 0.103353,0.26665 0.103353,0.56224 z m -0.880566,0 q 0,-0.16123 -0.04754,-0.29352 -0.04754,-0.13436 -0.144694,-0.23151 -0.09509,-0.0992 -0.233578,-0.15296 -0.138492,-0.0558 -0.320393,-0.0558 -0.347265,0 -0.545703,0.20257 -0.198437,0.20257 -0.198437,0.53123 0,0.32866 0.198437,0.5333 0.200505,0.20257 0.545703,0.20257 0.237711,0 0.405143,-0.093 0.167431,-0.0951 0.254248,-0.26044 0.08682,-0.16744 0.08682,-0.38241 z m 3.234942,-1.46968 -1.55856,2.94142 h -0.553971 l 1.556493,-2.94142 z m 2.581752,2.90422 h -2.160073 v -2.86494 h 2.124933 v 0.57464 h -1.260904 v 0.52503 h 1.203027 v 0.57671 h -1.203027 v 0.61185 h 1.296044 z"
       id="text4-4-9-6-1-9-1-0"
       aria-label="A/O/E" />
    <path
       style="font-weight:bold;font-size:4.23333px;font-family:'Gill Sans';-inkscape-font-specification:'Gill Sans Bold';fill:#1a1a1a;stroke-width:0.079"
       d="m 71.100603,114.16642 -1.240234,2.90214 h -0.500227 l -0.74414,-1.68878 -0.762744,1.68878 h -0.504361 l -1.215429,-2.90214 h 0.895035 l 0.595312,1.5875 0.682128,-1.5875 h 0.61805 l 0.669726,1.5875 0.622184,-1.5875 z m 0.938443,0.27492 q 0,0.13022 -0.09302,0.22117 -0.09302,0.091 -0.221174,0.091 -0.08682,0 -0.159164,-0.0413 -0.07028,-0.0413 -0.111621,-0.11162 -0.04134,-0.0724 -0.04134,-0.15916 0,-0.12816 0.09095,-0.22118 0.09095,-0.093 0.221175,-0.093 0.128157,0 0.221174,0.093 0.09302,0.093 0.09302,0.22118 z m 0.05994,2.59002 h -0.746207 v -2.10427 h 0.746207 z m 2.738848,0 h -0.746207 v -0.19017 q -0.117822,0.0992 -0.250114,0.1633 -0.130224,0.0641 -0.361734,0.0641 -0.229443,0 -0.450618,-0.11368 -0.221175,-0.11369 -0.363802,-0.35347 -0.142627,-0.24185 -0.142627,-0.60772 0,-0.28732 0.107487,-0.53743 0.107487,-0.25218 0.33693,-0.40928 0.229443,-0.15709 0.562239,-0.15709 0.206706,0 0.334863,0.0455 0.128157,0.0455 0.227376,0.11576 v -0.8847 h 0.746207 z m -0.746207,-0.66973 v -0.80408 q -0.130224,-0.0724 -0.204638,-0.10336 -0.07235,-0.031 -0.171566,-0.031 -0.1757,0 -0.293522,0.14883 -0.115755,0.14882 -0.115755,0.40514 0,0.27905 0.121956,0.40721 0.124024,0.12609 0.287321,0.12609 0.134359,0 0.217041,-0.0413 0.08268,-0.0434 0.159163,-0.10749 z m 2.877341,0.54777 q -0.115755,0.0558 -0.320394,0.10749 -0.202571,0.0517 -0.388606,0.0517 -0.804085,0 -0.804085,-0.78548 v -0.83922 h -0.33693 v -0.13023 l 0.998388,-1.01699 h 0.08475 v 0.63045 h 0.711067 v 0.51677 h -0.711067 v 0.67386 q 0,0.11782 0.01447,0.19017 0.01447,0.0723 0.08061,0.12195 0.06821,0.0476 0.204638,0.0476 0.177767,0 0.467155,-0.14883 z m 2.573484,0.12196 h -0.74414 v -1.09141 q 0,-0.0124 0,-0.0227 0.0021,-0.0124 0.0021,-0.0496 0,-0.15089 -0.06408,-0.27698 -0.06408,-0.12609 -0.243913,-0.12609 -0.14056,0 -0.248047,0.0951 -0.107486,0.093 -0.204638,0.23565 v 1.2361 h -0.74414 v -2.86494 h 0.74414 v 1.06246 q 0.183968,-0.19637 0.363802,-0.26665 0.179834,-0.0723 0.382405,-0.0723 0.756542,0 0.756542,0.84956 z"
       id="text4-4-9-6-1-9-1-0-3"
       aria-label="Width" />
    <path
       style="font-weight:bold;font-size:4.23333px;font-family:'Gill Sans';-inkscape-font-specification:'Gill Sans Bold';fill:#1a1a1a;stroke-width:0.079"
       d="m 87.730661,101.99369 q 0,0.40101 -0.186035,0.73794 -0.183968,0.33693 -0.549837,0.53537 -0.365869,0.19844 -0.890901,0.19844 -0.531233,0 -0.899169,-0.20671 -0.367936,-0.2067 -0.54777,-0.54363 -0.177767,-0.33693 -0.177767,-0.72141 0,-0.38654 0.177767,-0.7214 0.177767,-0.33693 0.545703,-0.54157 0.370003,-0.2067 0.901236,-0.2067 0.396875,0 0.706933,0.11782 0.312125,0.11782 0.51263,0.32039 0.200504,0.20051 0.303857,0.46922 0.103353,0.26665 0.103353,0.56224 z m -0.880566,0 q 0,-0.16123 -0.04754,-0.29352 -0.04754,-0.13436 -0.144694,-0.23151 -0.09508,-0.0992 -0.233577,-0.15296 -0.138493,-0.0558 -0.320394,-0.0558 -0.347265,0 -0.545703,0.20257 -0.198437,0.20257 -0.198437,0.53123 0,0.32867 0.198437,0.5333 0.200505,0.20258 0.545703,0.20258 0.237711,0 0.405143,-0.093 0.167431,-0.0951 0.254248,-0.26045 0.08682,-0.16743 0.08682,-0.38241 z m 3.513994,1.43454 h -0.746207 v -0.29972 q -0.157096,0.1695 -0.330728,0.25425 -0.171566,0.0827 -0.413412,0.0827 -0.477489,0 -0.618049,-0.27699 -0.14056,-0.27905 -0.14056,-0.62838 v -1.2361 h 0.746207 v 1.13688 q 0,0.17156 0.05581,0.30179 0.05788,0.12816 0.248046,0.12816 0.163298,0 0.258382,-0.093 0.09508,-0.093 0.194303,-0.23771 v -1.2361 h 0.746207 z m 2.135269,-0.12196 q -0.115755,0.0558 -0.320394,0.10749 -0.202571,0.0517 -0.388606,0.0517 -0.804085,0 -0.804085,-0.78548 v -0.83923 h -0.33693 v -0.13022 l 0.998388,-1.01699 h 0.08475 v 0.63045 h 0.711067 v 0.51676 H 91.73248 v 0.67386 q 0,0.11782 0.01447,0.19017 0.01447,0.0724 0.08062,0.12196 0.06821,0.0475 0.204638,0.0475 0.177767,0 0.467155,-0.14883 z m 3.88193,0.12196 h -2.17661 v -2.86494 h 0.86403 v 2.17868 h 1.31258 z"
       id="text4-4-9-6-1-9-1-0-3-2"
       aria-label="Out L" />
    <path
       style="font-weight:bold;font-size:4.23333px;font-family:'Gill Sans';-inkscape-font-specification:'Gill Sans Bold';fill:#1a1a1a;stroke-width:0.079"
       d="m 88.934167,116.21763 q 0,0.40101 -0.186035,0.73794 -0.183968,0.33693 -0.549837,0.53537 -0.365868,0.19844 -0.890901,0.19844 -0.531233,0 -0.899169,-0.20671 -0.367936,-0.20671 -0.547769,-0.54364 -0.177767,-0.33693 -0.177767,-0.7214 0,-0.38654 0.177767,-0.7214 0.177766,-0.33693 0.545702,-0.54157 0.370003,-0.2067 0.901236,-0.2067 0.396875,0 0.706933,0.11782 0.312126,0.11782 0.51263,0.32039 0.200505,0.20051 0.303857,0.46922 0.103353,0.26665 0.103353,0.56224 z m -0.880566,0 q 0,-0.16123 -0.04754,-0.29352 -0.04754,-0.13436 -0.144694,-0.23151 -0.09508,-0.0992 -0.233577,-0.15296 -0.138493,-0.0558 -0.320394,-0.0558 -0.347265,0 -0.545702,0.20257 -0.198438,0.20257 -0.198438,0.53123 0,0.32866 0.198438,0.5333 0.200504,0.20257 0.545702,0.20257 0.237712,0 0.405143,-0.093 0.167432,-0.0951 0.254248,-0.26045 0.08682,-0.16743 0.08682,-0.38241 z m 3.513995,1.43454 h -0.746207 v -0.29972 q -0.157096,0.16949 -0.330729,0.25424 -0.171566,0.0827 -0.413411,0.0827 -0.47749,0 -0.61805,-0.27699 -0.140559,-0.27905 -0.140559,-0.62839 v -1.23609 h 0.746207 v 1.13688 q 0,0.17156 0.05581,0.30179 0.05788,0.12815 0.248047,0.12815 0.163297,0 0.258382,-0.093 0.09508,-0.093 0.194303,-0.23772 v -1.23609 h 0.746207 z m 2.135268,-0.12196 q -0.115755,0.0558 -0.320393,0.10749 -0.202572,0.0517 -0.388607,0.0517 -0.804084,0 -0.804084,-0.78549 v -0.83922 h -0.33693 v -0.13022 l 0.998387,-1.017 h 0.08475 v 0.63046 h 0.711067 v 0.51676 h -0.711067 v 0.67386 q 0,0.11782 0.01447,0.19017 0.01447,0.0724 0.08061,0.12196 0.06821,0.0475 0.204639,0.0475 0.177767,0 0.467154,-0.14883 z m 4.479309,0.12196 h -0.928107 l -0.22531,-0.5085 q -0.124023,-0.27905 -0.223242,-0.40721 -0.09922,-0.13022 -0.194303,-0.16536 -0.09302,-0.0372 -0.241845,-0.0372 h -0.09715 v 1.11828 h -0.864029 v -2.86494 h 1.469676 q 0.355534,0 0.58291,0.14469 0.227376,0.1447 0.326595,0.3514 0.101286,0.20671 0.101286,0.39274 0,0.21704 -0.08475,0.36794 -0.08268,0.14883 -0.175699,0.21704 -0.09302,0.0682 -0.208773,0.13022 0.138493,0.0806 0.227376,0.19224 0.09095,0.10955 0.24598,0.44648 z m -1.174087,-1.95957 q 0,-0.19844 -0.130225,-0.27699 -0.130224,-0.0785 -0.423746,-0.0785 h -0.181901 v 0.69039 h 0.186035 q 0.31626,0 0.432015,-0.0682 0.117822,-0.0703 0.117822,-0.26665 z"
       id="text4-4-9-6-1-9-1-0-3-2-04"
       aria-label="Out R" />
    <path
       style="font-weight:bold;font-size:4.23333px;font-family:'Gill Sans';-inkscape-font-specification:'Gill Sans Bold';fill:#1a1a1a;stroke-width:0.079"
       d="M 7.2871439,62.305161 H 6.5181993 l -1.486213,-1.595767 v 1.595767 h -0.855761 v -2.864939 h 0.7668776 l 1.4820789,1.587498 v -1.587498 h 0.8619621 z m 2.8153291,0 H 9.3562664 v -0.299724 q -0.1570962,0.169499 -0.3307289,0.254248 -0.1715656,0.08268 -0.4134111,0.08268 -0.4774898,0 -0.6180496,-0.276986 Q 7.853517,61.78633 7.853517,61.436997 v -1.236099 h 0.7462071 v 1.136881 q 0,0.171565 0.05581,0.30179 0.057878,0.128157 0.2480467,0.128157 0.1632974,0 0.2583819,-0.09302 0.095085,-0.09302 0.1943032,-0.237712 v -1.236099 h 0.7462066 z m 4.225062,0 h -0.74414 v -1.122412 q 0,-0.223242 -0.07441,-0.332796 -0.07235,-0.111621 -0.23151,-0.111621 -0.155029,0 -0.254248,0.09508 -0.09922,0.09302 -0.198437,0.235644 v 1.2361 h -0.74414 v -1.122412 q 0,-0.212906 -0.06821,-0.328661 -0.06821,-0.115756 -0.241846,-0.115756 -0.08268,0 -0.152962,0.03307 -0.06821,0.03307 -0.111621,0.07441 -0.04341,0.04134 -0.10542,0.121957 -0.06201,0.08062 -0.07855,0.101285 v 1.2361 h -0.74414 v -2.104263 h 0.74414 v 0.30179 q 0.167432,-0.177767 0.341064,-0.258382 0.173633,-0.08062 0.401009,-0.08062 0.107487,0 0.204639,0.02067 0.09715,0.0186 0.190169,0.06614 0.09508,0.04754 0.171565,0.130225 0.07648,0.08268 0.121957,0.192236 0.179834,-0.202571 0.37207,-0.305924 0.194303,-0.103353 0.446484,-0.103353 0.252181,0 0.421679,0.101286 0.171566,0.101285 0.252181,0.293522 0.08268,0.190169 0.08268,0.46302 z m 4.301542,-1.963703 q 0,0.159163 -0.05581,0.312125 -0.05374,0.150895 -0.1757,0.283187 -0.121956,0.130224 -0.330729,0.212906 -0.206705,0.08062 -0.487825,0.08062 H 17.01264 v 1.074869 h -0.864029 v -2.864939 h 1.430402 q 0.28112,0 0.487825,0.08268 0.208773,0.08268 0.330729,0.214974 0.121956,0.132291 0.1757,0.28732 0.05581,0.155029 0.05581,0.31626 z m -0.880565,0.0041 q 0,-0.204639 -0.121957,-0.279053 -0.119889,-0.07648 -0.432014,-0.07648 H 17.01264 v 0.690397 h 0.186035 q 0.214974,0 0.330729,-0.02687 0.115755,-0.02687 0.167431,-0.09922 0.05168,-0.07235 0.05168,-0.208772 z m 3.439581,0.90537 q 0,0.314193 -0.136426,0.560172 -0.136425,0.24598 -0.409277,0.388607 -0.270784,0.142627 -0.661458,0.142627 -0.390673,0 -0.663524,-0.142627 -0.270785,-0.142627 -0.40721,-0.388607 -0.134359,-0.245979 -0.134359,-0.560172 0,-0.237711 0.07441,-0.432014 0.07648,-0.194304 0.229443,-0.343132 0.155029,-0.150895 0.380338,-0.23151 0.22531,-0.08062 0.520898,-0.08062 0.297656,0 0.525033,0.08268 0.229443,0.08062 0.378271,0.227376 0.150895,0.146761 0.227376,0.343132 0.07648,0.19637 0.07648,0.434081 z m -0.783414,0 q 0,-0.250114 -0.109554,-0.390673 -0.107487,-0.142627 -0.314193,-0.142627 -0.204638,0 -0.314192,0.142627 -0.107487,0.140559 -0.107487,0.390673 0,0.248047 0.109554,0.392741 0.109554,0.144694 0.312125,0.144694 0.206706,0 0.314193,-0.142627 0.109554,-0.144694 0.109554,-0.394808 z m 1.953367,1.054199 h -0.746207 v -2.864939 h 0.746207 z m 2.670635,-0.872298 h -1.482079 q 0.04341,0.192236 0.212907,0.314193 0.169499,0.121956 0.384473,0.121956 0.376204,0 0.830956,-0.21084 v 0.460954 q -0.163298,0.08475 -0.396875,0.155029 -0.23151,0.06821 -0.591178,0.06821 -0.388606,0 -0.661457,-0.144694 -0.272852,-0.144694 -0.409277,-0.392741 -0.134359,-0.248047 -0.134359,-0.562239 0,-0.310058 0.134359,-0.553971 0.136425,-0.24598 0.409277,-0.384472 0.272851,-0.14056 0.661457,-0.14056 0.256315,0 0.494027,0.111621 0.239778,0.109554 0.39274,0.361735 0.155029,0.250113 0.155029,0.646988 z m -0.698664,-0.367936 q 0,-0.202571 -0.101286,-0.32246 -0.09922,-0.121957 -0.287321,-0.121957 -0.186035,0 -0.30179,0.124024 -0.113688,0.121956 -0.113688,0.320393 z m 2.709909,0.626318 q 0,0.289388 -0.212907,0.471289 -0.21084,0.179834 -0.628385,0.179834 -0.233577,0 -0.415478,-0.04134 -0.181901,-0.04341 -0.396875,-0.121956 v -0.529166 q 0.188102,0.107487 0.326595,0.163297 0.138493,0.05581 0.303857,0.05581 0.279053,0 0.279053,-0.152962 0,-0.05168 -0.04134,-0.09095 -0.03927,-0.04134 -0.14056,-0.09095 -0.09922,-0.05168 -0.26665,-0.121956 -0.206706,-0.09095 -0.3514,-0.243913 -0.144694,-0.152962 -0.144694,-0.374137 0,-0.157096 0.09509,-0.30179 0.09715,-0.144694 0.291455,-0.235645 0.194303,-0.09302 0.469221,-0.09302 0.06615,0 0.167432,0.01033 0.103353,0.0083 0.258382,0.04754 0.157096,0.03927 0.297656,0.111621 v 0.514696 q -0.06615,-0.03927 -0.111621,-0.06615 -0.04341,-0.02687 -0.117822,-0.05994 -0.07441,-0.03307 -0.1757,-0.05788 -0.09922,-0.02687 -0.204639,-0.02687 -0.128157,0 -0.175699,0.04961 -0.04754,0.04961 -0.04754,0.09922 0,0.05168 0.04961,0.09715 0.04961,0.04341 0.221175,0.109554 0.248046,0.09509 0.396874,0.196371 0.148828,0.09922 0.21084,0.219107 0.06408,0.11989 0.06408,0.283187 z"
       id="text4-0"
       aria-label="Num Poles" />
    <path
       style="font-weight:bold;font-size:4.23333px;font-family:'Gill Sans';-inkscape-font-specification:'Gill Sans Bold';fill:#1a1a1a;stroke-width:0.079"
       d="M 4.5957992,53.683971 H 3.8123851 v -2.864939 h 0.7834141 z"
       id="text4-0-01"
       aria-label="1" />
    <path
       style="font-weight:bold;font-size:4.23333px;font-family:'Gill Sans';-inkscape-font-specification:'Gill Sans Bold';fill:#1a1a1a;stroke-width:0.079"
       d="m 24.028772,53.036796 q 0,0.101286 -0.04341,0.23151 -0.04134,0.130225 -0.159163,0.264584 -0.117822,0.132291 -0.343131,0.223242 -0.225309,0.08888 -0.572575,0.08888 -0.353466,0 -0.576708,-0.08888 -0.223242,-0.08888 -0.345198,-0.223242 -0.11989,-0.136426 -0.157097,-0.260449 -0.03721,-0.126091 -0.03721,-0.235645 0,-0.217041 0.124024,-0.409277 0.124023,-0.192236 0.33693,-0.297656 -0.173633,-0.109554 -0.268717,-0.250114 -0.09509,-0.142626 -0.09509,-0.363801 0,-0.124024 0.05168,-0.262516 0.05374,-0.138493 0.171566,-0.266651 0.119889,-0.128157 0.31626,-0.204638 0.198437,-0.07855 0.479556,-0.07855 0.293522,0 0.489893,0.07855 0.19637,0.07648 0.316259,0.204638 0.119889,0.126091 0.167432,0.262517 0.04754,0.136425 0.04754,0.26665 0,0.227376 -0.09302,0.363801 -0.09095,0.134359 -0.270784,0.250114 0.142627,0.07441 0.241846,0.181901 0.101285,0.10542 0.159163,0.243913 0.05994,0.138492 0.05994,0.281119 z M 23.20815,51.771758 q 0,-0.136425 -0.06821,-0.260449 -0.06615,-0.124023 -0.221175,-0.124023 -0.159164,0 -0.231511,0.119889 -0.07235,0.117822 -0.07235,0.264583 0,0.167432 0.08888,0.274919 0.09095,0.105419 0.206705,0.105419 0.117823,0 0.206706,-0.105419 0.09095,-0.107487 0.09095,-0.274919 z m 0.08475,1.188557 q 0,-0.132291 -0.05788,-0.227376 -0.05788,-0.09715 -0.146761,-0.144694 -0.08888,-0.04961 -0.177767,-0.04961 -0.144693,0 -0.262516,0.113688 -0.117822,0.113688 -0.117822,0.307991 0,0.208773 0.117822,0.318327 0.117823,0.109554 0.266651,0.109554 0.152962,0 0.264583,-0.117823 0.113688,-0.117822 0.113688,-0.310058 z"
       id="text4-0-01-6"
       aria-label="8" />
    <path
       style="font-weight:bold;font-size:4.23333px;font-family:'Gill Sans';-inkscape-font-specification:'Gill Sans Bold';fill:#1a1a1a;stroke-width:0.079"
       d="m 42.009309,61.039017 q 0,0.159163 -0.05581,0.312125 -0.05374,0.150896 -0.1757,0.283187 -0.121956,0.130225 -0.330729,0.212907 -0.206705,0.08061 -0.487825,0.08061 h -0.566373 v 1.074869 h -0.864029 v -2.864939 h 1.430402 q 0.28112,0 0.487825,0.08268 0.208773,0.08268 0.330729,0.214974 0.121957,0.132291 0.1757,0.287321 0.05581,0.155029 0.05581,0.316259 z m -0.880566,0.0041 q 0,-0.204638 -0.121956,-0.279052 -0.11989,-0.07648 -0.432015,-0.07648 h -0.181901 v 0.690396 h 0.186035 q 0.214974,0 0.330729,-0.02687 0.115755,-0.02687 0.167431,-0.09922 0.05168,-0.07235 0.05168,-0.208773 z m 3.43958,0.905371 q 0,0.314192 -0.136425,0.560172 -0.136426,0.245979 -0.409277,0.388606 -0.270785,0.142627 -0.661458,0.142627 -0.390674,0 -0.663525,-0.142627 -0.270784,-0.142627 -0.40721,-0.388606 -0.134359,-0.24598 -0.134359,-0.560172 0,-0.237712 0.07441,-0.432015 0.07648,-0.194303 0.229444,-0.343131 0.155029,-0.150895 0.380338,-0.231511 0.225309,-0.08062 0.520898,-0.08062 0.297656,0 0.525032,0.08268 0.229443,0.08062 0.378271,0.227376 0.150895,0.146761 0.227376,0.343131 0.07648,0.19637 0.07648,0.434082 z m -0.783414,0 q 0,-0.250114 -0.109554,-0.390674 -0.107487,-0.142627 -0.314192,-0.142627 -0.204639,0 -0.314193,0.142627 -0.107486,0.14056 -0.107486,0.390674 0,0.248046 0.109553,0.39274 0.109554,0.144694 0.312126,0.144694 0.206705,0 0.314192,-0.142627 0.109554,-0.144694 0.109554,-0.394807 z m 1.953368,1.054198 H 44.99207 v -2.864939 h 0.746207 z m 2.670635,-0.872298 h -1.482078 q 0.04341,0.192237 0.212906,0.314193 0.169499,0.121956 0.384473,0.121956 0.376204,0 0.830956,-0.21084 v 0.460954 q -0.163297,0.08475 -0.396875,0.155029 -0.23151,0.06821 -0.591178,0.06821 -0.388606,0 -0.661457,-0.144694 -0.272852,-0.144694 -0.409277,-0.392741 -0.134359,-0.248046 -0.134359,-0.562239 0,-0.310058 0.134359,-0.553971 0.136425,-0.245979 0.409277,-0.384472 0.272851,-0.14056 0.661457,-0.14056 0.256315,0 0.494027,0.111621 0.239778,0.109554 0.39274,0.361735 0.155029,0.250114 0.155029,0.646988 z m -0.698664,-0.367935 q 0,-0.202572 -0.101286,-0.322461 -0.09922,-0.121956 -0.287321,-0.121956 -0.186035,0 -0.30179,0.124023 -0.113688,0.121956 -0.113688,0.320394 z m 5.144901,1.037661 q -0.09302,0.03514 -0.159164,0.05788 -0.06614,0.02274 -0.128157,0.04134 -0.05994,0.0186 -0.1757,0.04754 -0.19637,0.04548 -0.39274,0.06821 -0.194303,0.02481 -0.411344,0.02481 -0.436149,0 -0.806152,-0.159163 -0.370003,-0.159164 -0.593245,-0.494027 -0.221175,-0.334863 -0.221175,-0.822688 0,-0.314192 0.113688,-0.615982 0.115755,-0.303858 0.3514,-0.485758 0.194303,-0.150895 0.39274,-0.229444 0.200505,-0.08061 0.390674,-0.107486 0.190169,-0.02687 0.419612,-0.02687 0.378271,0 0.624251,0.05788 0.245979,0.05581 0.539501,0.148828 v 0.677995 q -0.194303,-0.113688 -0.411344,-0.19017 -0.217041,-0.07648 -0.541568,-0.07648 -0.374137,0 -0.599446,0.142627 -0.223242,0.14056 -0.312126,0.33693 -0.08682,0.196371 -0.08682,0.380339 0,0.21704 0.101286,0.401008 0.101285,0.181901 0.305924,0.293522 0.204638,0.109554 0.494026,0.109554 0.165364,0 0.351399,-0.04341 v -0.33693 h -0.388606 v -0.576709 h 1.143082 z m 2.740916,0.09715 q -0.163298,0.06408 -0.30179,0.103353 -0.138493,0.03927 -0.332796,0.03927 -0.183968,0 -0.256315,-0.06408 -0.07235,-0.06615 -0.103353,-0.159163 -0.119889,0.09715 -0.26665,0.16123 -0.146761,0.06201 -0.384472,0.06201 -0.229444,0 -0.37207,-0.07855 -0.14056,-0.08062 -0.198438,-0.200505 -0.05581,-0.121956 -0.05581,-0.250113 0,-0.194304 0.09715,-0.320394 0.09922,-0.128157 0.264584,-0.208773 0.165364,-0.08062 0.438215,-0.167431 0.155029,-0.04961 0.233578,-0.07441 0.08061,-0.02687 0.119889,-0.04134 0.03927,-0.01447 0.08268,-0.03721 0,-0.152962 -0.06201,-0.239779 -0.06201,-0.08682 -0.268717,-0.08682 -0.243912,0 -0.452685,0.107487 -0.208773,0.107487 -0.382405,0.276985 v -0.570507 q 0.138492,-0.09922 0.299723,-0.16123 0.16123,-0.06408 0.33693,-0.09508 0.1757,-0.03101 0.355533,-0.03101 0.45682,0 0.686263,0.177767 0.23151,0.1757 0.23151,0.485758 v 0.812353 q 0,0.115755 0.02067,0.173633 0.02274,0.05581 0.08062,0.05581 0.07028,0 0.190169,-0.05994 z M 54.56047,62.494224 v -0.49816 q -0.264583,0.107487 -0.386539,0.194303 -0.121957,0.08475 -0.121957,0.23151 0,0.10542 0.05994,0.161231 0.06201,0.05581 0.142627,0.05581 0.07648,0 0.150895,-0.04134 0.07648,-0.04341 0.155029,-0.103353 z m 3.640084,-0.558105 q 0,0.21084 -0.05994,0.40721 -0.05994,0.19637 -0.183968,0.355534 -0.121956,0.157096 -0.316259,0.250113 -0.192236,0.09095 -0.448551,0.09095 -0.206706,0 -0.326595,-0.04341 -0.117822,-0.04341 -0.235644,-0.115755 v 1.079003 h -0.74414 v -3.06131 h 0.74414 v 0.190169 q 0.111621,-0.09715 0.245979,-0.16123 0.136426,-0.06615 0.367936,-0.06615 0.229443,0 0.450618,0.113688 0.221175,0.113688 0.363802,0.355534 0.142627,0.239778 0.142627,0.605647 z m -0.783414,0.01654 q 0,-0.190169 -0.05995,-0.307992 -0.05994,-0.119889 -0.155029,-0.171565 -0.09508,-0.05374 -0.19637,-0.05374 -0.132292,0 -0.217041,0.04341 -0.08475,0.04134 -0.159163,0.10542 v 0.804085 q 0.03927,0.02067 0.08268,0.04754 0.04547,0.02481 0.08888,0.04341 0.04548,0.0186 0.09508,0.03101 0.05168,0.0124 0.109554,0.0124 0.1757,0 0.293522,-0.148828 0.117822,-0.148828 0.117822,-0.405143 z"
       id="text4-0-0"
       aria-label="Pole Gap" />
    <path
       style="font-weight:bold;font-size:4.23333px;font-family:'Gill Sans';-inkscape-font-specification:'Gill Sans Bold';fill:#1a1a1a;stroke-width:0.079"
       d="M 67.784994,61.294327 H 67.016049 L 65.529836,59.69856 v 1.595767 h -0.855761 v -2.864939 h 0.766878 l 1.482078,1.587498 v -1.587498 h 0.861963 z m 2.920749,-1.054199 q 0,0.314193 -0.136426,0.560173 -0.136425,0.245979 -0.409277,0.388606 -0.270784,0.142627 -0.661457,0.142627 -0.390674,0 -0.663525,-0.142627 -0.270785,-0.142627 -0.40721,-0.388606 -0.134359,-0.24598 -0.134359,-0.560173 0,-0.237711 0.07441,-0.432014 0.07648,-0.194303 0.229443,-0.343131 0.15503,-0.150895 0.380339,-0.231511 0.225309,-0.08062 0.520898,-0.08062 0.297656,0 0.525032,0.08268 0.229443,0.08062 0.378271,0.227377 0.150895,0.146761 0.227376,0.343131 0.07648,0.19637 0.07648,0.434081 z m -0.783414,0 q 0,-0.250113 -0.109554,-0.390673 -0.107487,-0.142627 -0.314192,-0.142627 -0.204639,0 -0.314193,0.142627 -0.107487,0.14056 -0.107487,0.390673 0,0.248047 0.109554,0.392741 0.109554,0.144694 0.312126,0.144694 0.206705,0 0.314192,-0.142627 0.109554,-0.144694 0.109554,-0.394808 z m 2.829799,0.932243 q -0.115755,0.05581 -0.320393,0.107486 -0.202572,0.05168 -0.388607,0.05168 -0.804084,0 -0.804084,-0.785481 v -0.839225 h -0.33693 v -0.130224 l 0.998387,-1.016992 h 0.08475 v 0.630452 h 0.711067 v 0.516764 h -0.711067 v 0.67386 q 0,0.117822 0.01447,0.190169 0.01447,0.07235 0.08062,0.121957 0.06821,0.04754 0.204639,0.04754 0.177767,0 0.467154,-0.148828 z m 2.129067,0.0248 q -0.09302,0.03514 -0.19637,0.06615 -0.103353,0.02894 -0.233578,0.04754 -0.128157,0.02067 -0.281119,0.02067 -0.345199,0 -0.584977,-0.115755 -0.237711,-0.117822 -0.367936,-0.293522 -0.128157,-0.177767 -0.177767,-0.361735 -0.04961,-0.183968 -0.04961,-0.324528 0,-0.140559 0.04961,-0.324527 0.05168,-0.183968 0.177767,-0.355534 0.126091,-0.171566 0.363802,-0.287321 0.239778,-0.115755 0.589111,-0.115755 0.233577,0 0.380338,0.03307 0.146761,0.03307 0.297656,0.08888 v 0.584976 q -0.363802,-0.115755 -0.56844,-0.115755 -0.198438,0 -0.353467,0.119889 -0.152962,0.11989 -0.152962,0.37207 0,0.167432 0.07648,0.283187 0.07648,0.113688 0.194303,0.167431 0.117823,0.05374 0.235645,0.05374 0.111621,0 0.254248,-0.03307 0.142626,-0.03307 0.347265,-0.09508 z m 2.608624,0.09715 h -0.74414 v -1.091406 q 0,-0.0124 0,-0.02274 0.0021,-0.0124 0.0021,-0.04961 0,-0.150896 -0.06408,-0.276986 -0.06408,-0.12609 -0.243913,-0.12609 -0.14056,0 -0.248047,0.09508 -0.107486,0.09302 -0.204638,0.235645 v 1.236099 h -0.74414 v -2.864939 h 0.74414 v 1.062466 q 0.183968,-0.19637 0.363802,-0.26665 0.179834,-0.07235 0.382405,-0.07235 0.756542,0 0.756542,0.84956 z m 2.385383,-2.904213 -1.55856,2.94142 h -0.553971 l 1.556493,-2.94142 z m 3.038572,2.09186 q 0,0.370003 -0.254248,0.591178 -0.252181,0.221175 -0.706933,0.221175 h -1.655711 v -2.864939 h 1.384927 q 0.268717,0 0.467154,0.05168 0.200505,0.05168 0.322461,0.142627 0.121956,0.08888 0.181901,0.21084 0.05994,0.121956 0.05994,0.26665 0,0.157096 -0.06201,0.291455 -0.06201,0.132291 -0.155029,0.219108 -0.09095,0.08475 -0.183968,0.119889 0.293522,0.115755 0.446484,0.293522 0.155029,0.175699 0.155029,0.456819 z m -1.008723,-1.227831 q 0,-0.206706 -0.136426,-0.274918 -0.136426,-0.06821 -0.425813,-0.06821 h -0.181901 v 0.686262 h 0.186035 q 0.295589,0 0.425813,-0.06821 0.132292,-0.06821 0.132292,-0.274918 z m 0.14056,1.192691 q 0,-0.367936 -0.533301,-0.367936 h -0.351399 v 0.733805 h 0.351399 q 0.533301,0 0.533301,-0.365869 z m 3.482987,0.742073 q -0.163297,0.06408 -0.30179,0.103353 -0.138493,0.03927 -0.332796,0.03927 -0.183968,0 -0.256315,-0.06408 -0.07235,-0.06615 -0.103353,-0.159163 -0.119889,0.09715 -0.26665,0.16123 -0.146761,0.06201 -0.384472,0.06201 -0.229443,0 -0.37207,-0.07855 -0.14056,-0.08062 -0.198437,-0.200505 -0.05581,-0.121956 -0.05581,-0.250113 0,-0.194304 0.09715,-0.320394 0.09922,-0.128157 0.264583,-0.208773 0.165364,-0.08062 0.438216,-0.167431 0.155029,-0.04961 0.233577,-0.07441 0.08062,-0.02687 0.119889,-0.04134 0.03927,-0.01447 0.08268,-0.03721 0,-0.152962 -0.06201,-0.239779 -0.06201,-0.08682 -0.268718,-0.08682 -0.243912,0 -0.452685,0.107487 -0.208772,0.107487 -0.382405,0.276985 v -0.570507 q 0.138493,-0.09922 0.299723,-0.16123 0.16123,-0.06408 0.33693,-0.09508 0.1757,-0.03101 0.355534,-0.03101 0.456819,0 0.686262,0.177767 0.23151,0.1757 0.23151,0.485758 v 0.812353 q 0,0.115755 0.02067,0.173633 0.02274,0.05581 0.08062,0.05581 0.07028,0 0.190169,-0.05994 z m -1.035595,-0.403076 v -0.49816 q -0.264583,0.107487 -0.386539,0.194303 -0.121956,0.08475 -0.121956,0.23151 0,0.10542 0.05994,0.161231 0.06201,0.05581 0.142627,0.05581 0.07648,0 0.150895,-0.04134 0.07648,-0.04341 0.155029,-0.103353 z m 3.576007,0.508496 h -0.74414 v -1.134814 q 0,-0.173632 -0.05788,-0.30179 -0.05581,-0.130224 -0.248047,-0.130224 -0.09095,0 -0.16123,0.03514 -0.06821,0.03307 -0.124023,0.08682 -0.05374,0.05374 -0.09095,0.103353 -0.03721,0.04961 -0.07648,0.10542 v 1.236099 h -0.74414 v -2.104263 h 0.74414 v 0.30179 q 0.1757,-0.188102 0.3514,-0.262516 0.177766,-0.07648 0.394807,-0.07648 0.756542,0 0.756542,0.905371 z m 2.672703,0 h -0.746207 v -0.190169 q -0.117823,0.09922 -0.250114,0.163297 -0.130225,0.06408 -0.361735,0.06408 -0.229443,0 -0.450618,-0.113688 -0.221175,-0.113688 -0.363802,-0.353467 -0.142627,-0.241845 -0.142627,-0.607714 0,-0.287321 0.107487,-0.537435 0.107487,-0.25218 0.33693,-0.409277 0.229444,-0.157096 0.562239,-0.157096 0.206706,0 0.334863,0.04548 0.128158,0.04548 0.227377,0.115756 v -0.8847 h 0.746207 z m -0.746207,-0.669726 v -0.804085 q -0.130225,-0.07235 -0.204639,-0.103353 -0.07235,-0.03101 -0.171566,-0.03101 -0.175699,0 -0.293521,0.148828 -0.115756,0.148828 -0.115756,0.405142 0,0.279053 0.121957,0.40721 0.124023,0.126091 0.28732,0.126091 0.134359,0 0.217041,-0.04134 0.08268,-0.04341 0.159164,-0.107487 z m 3.528464,-0.396875 q 0,0.21084 -0.05994,0.40721 -0.05994,0.19637 -0.183968,0.355534 -0.121956,0.157096 -0.316259,0.250113 -0.192236,0.09095 -0.448551,0.09095 -0.206706,0 -0.326595,-0.04341 -0.117822,-0.04341 -0.235644,-0.115755 v 1.079003 h -0.74414 v -3.06131 h 0.74414 v 0.190169 q 0.111621,-0.09715 0.245979,-0.16123 0.136426,-0.06615 0.367936,-0.06615 0.229443,0 0.450618,0.113688 0.221175,0.113688 0.363802,0.355534 0.142627,0.239778 0.142627,0.605647 z m -0.783414,0.01654 q 0,-0.19017 -0.05994,-0.307992 -0.05994,-0.119889 -0.155029,-0.171565 -0.09508,-0.05374 -0.19637,-0.05374 -0.132292,0 -0.217041,0.04341 -0.08475,0.04134 -0.159163,0.10542 v 0.804085 q 0.03927,0.02067 0.08268,0.04754 0.04547,0.02481 0.08888,0.04341 0.04547,0.0186 0.09508,0.03101 0.05168,0.0124 0.109554,0.0124 0.175699,0 0.293522,-0.148828 0.117822,-0.148828 0.117822,-0.405142 z m 3.352764,0.944644 q -0.163297,0.06408 -0.30179,0.103353 -0.138493,0.03927 -0.332796,0.03927 -0.183968,0 -0.256315,-0.06408 -0.07235,-0.06615 -0.103353,-0.159163 -0.119889,0.09715 -0.26665,0.16123 -0.146761,0.06201 -0.384472,0.06201 -0.229443,0 -0.37207,-0.07855 -0.14056,-0.08062 -0.198437,-0.200505 -0.05581,-0.121956 -0.05581,-0.250113 0,-0.194304 0.09715,-0.320394 0.09922,-0.128157 0.264583,-0.208773 0.165364,-0.08062 0.438216,-0.167431 0.155029,-0.04961 0.233577,-0.07441 0.08061,-0.02687 0.119889,-0.04134 0.03927,-0.01447 0.08268,-0.03721 0,-0.152962 -0.06201,-0.239779 -0.06201,-0.08682 -0.268718,-0.08682 -0.243912,0 -0.452685,0.107487 -0.208772,0.107487 -0.382405,0.276985 v -0.570507 q 0.138493,-0.09922 0.299723,-0.16123 0.16123,-0.06408 0.33693,-0.09508 0.1757,-0.03101 0.355534,-0.03101 0.456819,0 0.686262,0.177767 0.23151,0.1757 0.23151,0.485758 v 0.812353 q 0,0.115755 0.02067,0.173633 0.02274,0.05581 0.08061,0.05581 0.07028,0 0.190169,-0.05994 z m -1.035595,-0.403076 v -0.49816 q -0.264583,0.107487 -0.386539,0.194303 -0.121956,0.08475 -0.121956,0.23151 0,0.10542 0.05994,0.161231 0.06201,0.05581 0.142627,0.05581 0.07648,0 0.150895,-0.04134 0.07648,-0.04341 0.155029,-0.103353 z m 2.914548,-0.10542 q 0,0.289388 -0.212906,0.471289 -0.21084,0.179834 -0.628385,0.179834 -0.233578,0 -0.415478,-0.04134 -0.181901,-0.04341 -0.396875,-0.121957 V 60.63907 q 0.188102,0.107487 0.326595,0.163298 0.138492,0.05581 0.303857,0.05581 0.279052,0 0.279052,-0.152962 0,-0.05168 -0.04134,-0.09095 -0.03927,-0.04134 -0.14056,-0.09095 -0.09922,-0.05168 -0.26665,-0.121956 -0.206705,-0.09095 -0.351399,-0.243913 -0.144694,-0.152962 -0.144694,-0.374137 0,-0.157096 0.09508,-0.30179 0.09715,-0.144694 0.291455,-0.235644 0.194304,-0.09302 0.469222,-0.09302 0.06615,0 0.167431,0.01034 0.103353,0.0083 0.258382,0.04754 0.157097,0.03927 0.297656,0.111621 v 0.514697 q -0.06614,-0.03927 -0.111621,-0.06615 -0.04341,-0.02687 -0.117822,-0.05994 -0.07441,-0.03307 -0.1757,-0.05788 -0.09922,-0.02687 -0.204638,-0.02687 -0.128157,0 -0.1757,0.04961 -0.04754,0.04961 -0.04754,0.09922 0,0.05168 0.04961,0.09715 0.04961,0.04341 0.221175,0.109554 0.248047,0.09508 0.396875,0.19637 0.148828,0.09922 0.21084,0.219108 0.06408,0.119889 0.06408,0.283186 z m 2.048457,0 q 0,0.289388 -0.212911,0.471289 -0.21084,0.179834 -0.628385,0.179834 -0.233577,0 -0.415478,-0.04134 -0.181901,-0.04341 -0.396875,-0.121957 V 60.63907 q 0.188102,0.107487 0.326595,0.163298 0.138493,0.05581 0.303857,0.05581 0.279053,0 0.279053,-0.152962 0,-0.05168 -0.04134,-0.09095 -0.03927,-0.04134 -0.14056,-0.09095 -0.09922,-0.05168 -0.26665,-0.121956 -0.206706,-0.09095 -0.3514,-0.243913 -0.144694,-0.152962 -0.144694,-0.374137 0,-0.157096 0.09508,-0.30179 0.09715,-0.144694 0.291455,-0.235644 0.194303,-0.09302 0.469221,-0.09302 0.06615,0 0.167432,0.01034 0.103353,0.0083 0.258382,0.04754 0.157096,0.03927 0.297656,0.111621 v 0.514697 q -0.06615,-0.03927 -0.111621,-0.06615 -0.04341,-0.02687 -0.117822,-0.05994 -0.07441,-0.03307 -0.1757,-0.05788 -0.09922,-0.02687 -0.204639,-0.02687 -0.128157,0 -0.175699,0.04961 -0.04754,0.04961 -0.04754,0.09922 0,0.05168 0.04961,0.09715 0.04961,0.04341 0.221175,0.109554 0.248046,0.09508 0.396874,0.19637 0.148828,0.09922 0.21084,0.219108 0.06408,0.119889 0.06408,0.283186 z"
       id="text4-0-0-1"
       aria-label="Notch/Bandpass" />
    <path
       style="font-weight:bold;font-size:4.23333px;font-family:'Gill Sans';-inkscape-font-specification:'Gill Sans Bold';fill:#1a1a1a;stroke-width:0.079"
       d="m 58.525051,87.748588 q 0,0.268717 -0.138492,0.465088 -0.136426,0.19637 -0.382406,0.30179 -0.245979,0.103353 -0.564306,0.103353 -0.08888,0 -0.219108,-0.0124 -0.128157,-0.01033 -0.343131,-0.06201 -0.212907,-0.05168 -0.444417,-0.152962 v -0.702799 q 0.217041,0.134358 0.425814,0.223242 0.210839,0.08888 0.450618,0.08888 0.221175,0 0.285253,-0.07235 0.06615,-0.07441 0.06615,-0.138493 0,-0.115755 -0.111621,-0.194303 -0.111621,-0.08061 -0.324528,-0.165364 -0.235644,-0.09922 -0.413411,-0.214974 -0.177766,-0.117822 -0.291454,-0.293522 -0.111621,-0.1757 -0.111621,-0.415478 0,-0.23151 0.113688,-0.417545 0.113688,-0.188102 0.347265,-0.299723 0.233577,-0.111621 0.570507,-0.111621 0.239779,0 0.44235,0.04754 0.204639,0.04547 0.33693,0.103353 0.132292,0.05788 0.181901,0.09095 v 0.671793 q -0.1757,-0.12609 -0.39274,-0.225309 -0.214974,-0.09922 -0.460954,-0.09922 -0.16123,0 -0.233577,0.06201 -0.07235,0.06201 -0.07235,0.152962 0,0.08475 0.07235,0.146761 0.07235,0.06201 0.258382,0.150895 0.330729,0.155029 0.529166,0.279053 0.198437,0.124023 0.310058,0.28732 0.113688,0.161231 0.113688,0.403076 z m 2.124934,0.711067 q -0.115756,0.05581 -0.320394,0.107487 -0.202571,0.05168 -0.388606,0.05168 -0.804085,0 -0.804085,-0.785481 v -0.839225 h -0.33693 v -0.130225 l 0.998388,-1.016991 h 0.08475 v 0.630452 h 0.711067 v 0.516764 h -0.711067 v 0.67386 q 0,0.117822 0.01447,0.190169 0.01447,0.07235 0.08062,0.121956 0.06821,0.04754 0.204638,0.04754 0.177767,0 0.467155,-0.148828 z m 2.4846,-0.750341 h -1.482079 q 0.04341,0.192236 0.212907,0.314193 0.169499,0.121956 0.384472,0.121956 0.376204,0 0.830957,-0.21084 v 0.460954 q -0.163298,0.08475 -0.396875,0.155029 -0.23151,0.06821 -0.591178,0.06821 -0.388606,0 -0.661458,-0.144694 -0.272851,-0.144694 -0.409277,-0.392741 -0.134358,-0.248046 -0.134358,-0.562239 0,-0.310058 0.134358,-0.553971 0.136426,-0.245979 0.409277,-0.384472 0.272852,-0.14056 0.661458,-0.14056 0.256315,0 0.494026,0.111621 0.239779,0.109554 0.392741,0.361735 0.155029,0.250114 0.155029,0.646988 z M 62.43592,87.341378 q 0,-0.202571 -0.101285,-0.32246 -0.09922,-0.121957 -0.287321,-0.121957 -0.186035,0 -0.30179,0.124024 -0.113688,0.121956 -0.113688,0.320393 z m 2.914549,-0.750341 -0.274918,0.746207 q -0.169499,-0.16123 -0.343132,-0.16123 -0.157096,0 -0.272851,0.107487 -0.113688,0.10542 -0.219108,0.39274 v 0.905371 h -0.74414 v -2.104263 h 0.74414 v 0.508496 q 0.07028,-0.188102 0.248047,-0.365869 0.177767,-0.179834 0.417545,-0.179834 0.126091,0 0.219108,0.03721 0.09509,0.03721 0.225309,0.113688 z m 2.213817,1.118277 h -1.482079 q 0.04341,0.192236 0.212907,0.314193 0.169498,0.121956 0.384472,0.121956 0.376204,0 0.830957,-0.21084 v 0.460954 q -0.163298,0.08475 -0.396875,0.155029 -0.23151,0.06821 -0.591178,0.06821 -0.388606,0 -0.661458,-0.144694 -0.272851,-0.144694 -0.409277,-0.392741 -0.134358,-0.248046 -0.134358,-0.562239 0,-0.310058 0.134358,-0.553971 0.136426,-0.245979 0.409277,-0.384472 0.272852,-0.14056 0.661458,-0.14056 0.256315,0 0.494026,0.111621 0.239779,0.109554 0.392741,0.361735 0.155029,0.250114 0.155029,0.646988 z m -0.698665,-0.367936 q 0,-0.202571 -0.101286,-0.32246 -0.09922,-0.121957 -0.28732,-0.121957 -0.186035,0 -0.30179,0.124024 -0.113688,0.121956 -0.113688,0.320393 z m 3.387904,0.186035 q 0,0.314193 -0.136426,0.560172 -0.136426,0.24598 -0.409277,0.388607 -0.270784,0.142627 -0.661458,0.142627 -0.390673,0 -0.663525,-0.142627 -0.270784,-0.142627 -0.407209,-0.388607 -0.134359,-0.245979 -0.134359,-0.560172 0,-0.237711 0.07441,-0.432014 0.07648,-0.194304 0.229443,-0.343132 0.155029,-0.150895 0.380338,-0.23151 0.225309,-0.08062 0.520898,-0.08062 0.297656,0 0.525032,0.08268 0.229444,0.08061 0.378272,0.227376 0.150895,0.146761 0.227376,0.343132 0.07648,0.19637 0.07648,0.434081 z m -0.783414,0 q 0,-0.250113 -0.109554,-0.390673 -0.107487,-0.142627 -0.314193,-0.142627 -0.204638,0 -0.314192,0.142627 -0.107487,0.14056 -0.107487,0.390673 0,0.248047 0.109554,0.392741 0.109554,0.144694 0.312125,0.144694 0.206706,0 0.314193,-0.142627 0.109554,-0.144694 0.109554,-0.394808 z m 7.189219,-1.81074 -1.240233,2.902146 h -0.500228 l -0.74414,-1.688785 -0.762743,1.688785 h -0.504362 l -1.215429,-2.902146 h 0.895035 l 0.595312,1.587498 0.682129,-1.587498 h 0.618049 l 0.669726,1.587498 0.622184,-1.587498 z m 0.938444,0.274918 q 0,0.130225 -0.09302,0.221175 -0.09302,0.09095 -0.221175,0.09095 -0.08682,0 -0.159163,-0.04134 -0.07028,-0.04134 -0.111621,-0.111621 -0.04134,-0.07235 -0.04134,-0.159163 0,-0.128157 0.09095,-0.221175 0.09095,-0.09302 0.221175,-0.09302 0.128158,0 0.221175,0.09302 0.09302,0.09302 0.09302,0.221175 z m 0.05994,2.590021 h -0.746207 v -2.104263 h 0.746207 z m 2.738848,0 h -0.746207 v -0.190169 q -0.117822,0.09922 -0.250113,0.163297 -0.130225,0.06408 -0.361735,0.06408 -0.229443,0 -0.450618,-0.113688 -0.221175,-0.113688 -0.363802,-0.353467 -0.142627,-0.241845 -0.142627,-0.607714 0,-0.287321 0.107487,-0.537435 0.107487,-0.25218 0.33693,-0.409277 0.229443,-0.157096 0.562239,-0.157096 0.206706,0 0.334863,0.04548 0.128158,0.04548 0.227376,0.115755 v -0.884699 h 0.746207 z m -0.746207,-0.669726 v -0.804085 q -0.130224,-0.07235 -0.204638,-0.103353 -0.07235,-0.03101 -0.171566,-0.03101 -0.175699,0 -0.293522,0.148828 -0.115755,0.148828 -0.115755,0.405143 0,0.279053 0.121957,0.40721 0.124023,0.126091 0.28732,0.126091 0.134359,0 0.217041,-0.04134 0.08268,-0.04341 0.159163,-0.107487 z m 2.877342,0.547769 q -0.115755,0.05581 -0.320393,0.107487 -0.202572,0.05168 -0.388607,0.05168 -0.804085,0 -0.804085,-0.785481 v -0.839225 h -0.33693 v -0.130225 l 0.998388,-1.016991 h 0.08475 v 0.630452 h 0.711067 v 0.516764 h -0.711067 v 0.67386 q 0,0.117822 0.01447,0.190169 0.01447,0.07235 0.08061,0.121956 0.06821,0.04754 0.204639,0.04754 0.177766,0 0.467154,-0.148828 z m 2.573483,0.121957 h -0.74414 v -1.091406 q 0,-0.0124 0,-0.02274 0.0021,-0.0124 0.0021,-0.04961 0,-0.150895 -0.06408,-0.276985 -0.06408,-0.12609 -0.243913,-0.12609 -0.140559,0 -0.248046,0.09508 -0.107487,0.09302 -0.204639,0.235644 v 1.2361 h -0.74414 v -2.864939 h 0.74414 v 1.062466 q 0.183968,-0.19637 0.363802,-0.26665 0.179834,-0.07235 0.382405,-0.07235 0.756543,0 0.756543,0.84956 z"
       id="text4-0-0-1-3"
       aria-label="Stereo Width" />
    <path
       style="font-weight:bold;font-size:4.23333px;font-family:'Gill Sans';-inkscape-font-specification:'Gill Sans Bold';fill:#1a1a1a;stroke-width:0.079"
       d="m 11.962825,88.257103 h -0.8847 L 10.844548,87.67626 H 9.6001807 L 9.3624693,88.257103 H 8.4777695 L 9.7448746,85.392164 H 10.699854 Z M 10.646111,87.1781 10.226499,86.13217 9.8027521,87.1781 Z m 2.35851,1.079003 h -0.746207 v -2.864939 h 0.746207 z m 1.296044,0 h -0.746207 v -2.864939 h 0.746207 z"
       id="text4-0-0-1-3-1"
       aria-label="All" />
    <path
       style="font-weight:bold;font-size:4.23333px;font-family:'Gill Sans';-inkscape-font-specification:'Gill Sans Bold';fill:#1a1a1a;stroke-width:0.079"
       d="m 31.634916,89.06266 h -2.160073 v -2.864939 h 2.124933 v 0.574642 h -1.260904 v 0.525032 h 1.203026 v 0.576708 h -1.203026 v 0.611849 h 1.296044 z m 2.67477,-2.104262 -0.957047,2.104262 h -0.549837 l -0.936376,-2.104262 h 0.799951 l 0.436148,1.10174 0.483691,-1.10174 z m 2.348175,1.231965 h -1.482078 q 0.04341,0.192236 0.212906,0.314192 0.169499,0.121956 0.384473,0.121956 0.376204,0 0.830956,-0.210839 v 0.460953 q -0.163297,0.08475 -0.396875,0.155029 -0.23151,0.06821 -0.591178,0.06821 -0.388606,0 -0.661457,-0.144694 -0.272852,-0.144694 -0.409277,-0.39274 -0.134359,-0.248047 -0.134359,-0.562239 0,-0.310059 0.134359,-0.553971 0.136425,-0.24598 0.409277,-0.384473 0.272851,-0.140559 0.661457,-0.140559 0.256315,0 0.494027,0.111621 0.239778,0.109554 0.39274,0.361734 0.155029,0.250114 0.155029,0.646989 z m -0.698664,-0.367936 q 0,-0.202572 -0.101286,-0.322461 -0.09922,-0.121956 -0.287321,-0.121956 -0.186035,0 -0.30179,0.124023 -0.113688,0.121957 -0.113688,0.320394 z m 3.311422,1.240233 h -0.74414 v -1.134813 q 0,-0.173633 -0.05788,-0.30179 -0.05581,-0.130225 -0.248047,-0.130225 -0.09095,0 -0.16123,0.03514 -0.06821,0.03307 -0.124024,0.08682 -0.05374,0.05374 -0.09095,0.103353 -0.03721,0.04961 -0.07648,0.10542 v 1.236099 h -0.74414 v -2.104262 h 0.74414 v 0.30179 q 0.175699,-0.188102 0.351399,-0.262516 0.177767,-0.07648 0.394808,-0.07648 0.756542,0 0.756542,0.90537 z"
       id="text4-0-0-1-3-1-3"
       aria-label="Even" />
    <path
       style="font-weight:bold;font-size:4.23333px;font-family:'Gill Sans';-inkscape-font-specification:'Gill Sans Bold';fill:#1a1a1a;stroke-width:0.079"
       d="m 22.489515,69.597759 q 0,0.401008 -0.186035,0.737939 -0.183968,0.33693 -0.549837,0.535367 -0.365869,0.198437 -0.890901,0.198437 -0.531233,0 -0.899169,-0.206705 -0.367936,-0.206706 -0.54777,-0.543636 -0.177767,-0.33693 -0.177767,-0.721402 0,-0.38654 0.177767,-0.721403 0.177767,-0.33693 0.545703,-0.541568 0.370003,-0.206706 0.901236,-0.206706 0.396875,0 0.706933,0.117822 0.312125,0.117823 0.51263,0.320394 0.200504,0.200504 0.303857,0.469222 0.103353,0.26665 0.103353,0.562239 z m -0.880566,0 q 0,-0.161231 -0.04754,-0.293522 -0.04754,-0.134359 -0.144694,-0.23151 -0.09509,-0.09922 -0.233578,-0.152963 -0.138492,-0.05581 -0.320393,-0.05581 -0.347265,0 -0.545703,0.202571 -0.198437,0.202572 -0.198437,0.531234 0,0.328662 0.198437,0.5333 0.200505,0.202571 0.545703,0.202571 0.237711,0 0.405143,-0.09302 0.167431,-0.09508 0.254248,-0.260449 0.08682,-0.167432 0.08682,-0.382405 z m 3.522263,1.434536 h -0.746207 v -0.190169 q -0.117823,0.09922 -0.250114,0.163298 -0.130225,0.06408 -0.361735,0.06408 -0.229443,0 -0.450618,-0.113688 -0.221175,-0.113688 -0.363802,-0.353466 -0.142627,-0.241846 -0.142627,-0.607715 0,-0.28732 0.107487,-0.537434 0.107487,-0.252181 0.33693,-0.409277 0.229443,-0.157096 0.562239,-0.157096 0.206706,0 0.334863,0.04547 0.128158,0.04547 0.227377,0.115755 v -0.8847 h 0.746207 z m -0.746207,-0.669726 v -0.804084 q -0.130225,-0.07235 -0.204639,-0.103353 -0.07235,-0.03101 -0.171566,-0.03101 -0.175699,0 -0.293521,0.148828 -0.115756,0.148828 -0.115756,0.405143 0,0.279052 0.121957,0.40721 0.124023,0.12609 0.28732,0.12609 0.134359,0 0.217041,-0.04134 0.08268,-0.04341 0.159164,-0.107487 z m 3.443714,0.669726 h -0.746207 v -0.190169 q -0.117822,0.09922 -0.250114,0.163298 -0.130224,0.06408 -0.361734,0.06408 -0.229443,0 -0.450618,-0.113688 -0.221175,-0.113688 -0.363802,-0.353466 -0.142627,-0.241846 -0.142627,-0.607715 0,-0.28732 0.107487,-0.537434 0.107487,-0.252181 0.33693,-0.409277 0.229443,-0.157096 0.562239,-0.157096 0.206706,0 0.334863,0.04547 0.128158,0.04547 0.227376,0.115755 v -0.8847 h 0.746207 z m -0.746207,-0.669726 v -0.804084 q -0.130224,-0.07235 -0.204638,-0.103353 -0.07235,-0.03101 -0.171566,-0.03101 -0.1757,0 -0.293522,0.148828 -0.115755,0.148828 -0.115755,0.405143 0,0.279052 0.121956,0.40721 0.124024,0.12609 0.287321,0.12609 0.134359,0 0.217041,-0.04134 0.08268,-0.04341 0.159163,-0.107487 z"
       id="text4-0-0-1-3-1-3-9"
       aria-label="Odd" />
    <path
       style="font-weight:bold;font-size:4.23333px;font-family:'Gill Sans';-inkscape-font-specification:'Gill Sans Bold';fill:#1a1a1a;stroke-width:0.079"
       d="m 39.490709,31.956686 q 0,0.370003 -0.254248,0.591178 -0.252181,0.221175 -0.706933,0.221175 H 36.873816 V 29.9041 h 1.384928 q 0.268717,0 0.467154,0.05168 0.200505,0.05168 0.322461,0.142626 0.121956,0.08888 0.181901,0.21084 0.05994,0.121956 0.05994,0.26665 0,0.157096 -0.06201,0.291455 -0.06201,0.132292 -0.15503,0.219108 -0.09095,0.08475 -0.183967,0.119889 0.293521,0.115755 0.446484,0.293522 0.155029,0.1757 0.155029,0.456819 z m -1.008723,-1.227831 q 0,-0.206705 -0.136426,-0.274918 -0.136426,-0.06821 -0.425814,-0.06821 h -0.1819 v 0.686263 h 0.186035 q 0.295589,0 0.425813,-0.06821 0.132292,-0.06821 0.132292,-0.274919 z m 0.140559,1.192691 q 0,-0.367936 -0.5333,-0.367936 h -0.351399 v 0.733805 h 0.351399 q 0.5333,0 0.5333,-0.365869 z m 3.482989,0.742073 q -0.163297,0.06408 -0.30179,0.103353 -0.138493,0.03927 -0.332796,0.03927 -0.183968,0 -0.256315,-0.06408 -0.07235,-0.06614 -0.103353,-0.159163 -0.119889,0.09715 -0.26665,0.16123 -0.146761,0.06201 -0.384472,0.06201 -0.229443,0 -0.37207,-0.07855 -0.14056,-0.08061 -0.198438,-0.200504 -0.05581,-0.121957 -0.05581,-0.250114 0,-0.194303 0.09715,-0.320394 0.09922,-0.128157 0.264584,-0.208772 0.165364,-0.08062 0.438215,-0.167432 0.15503,-0.04961 0.233578,-0.07441 0.08062,-0.02687 0.119889,-0.04134 0.03927,-0.01447 0.08268,-0.03721 0,-0.152962 -0.06201,-0.239778 -0.06201,-0.08682 -0.268717,-0.08682 -0.243912,0 -0.452685,0.107487 -0.208773,0.107487 -0.382405,0.276986 V 30.91489 q 0.138492,-0.09922 0.299723,-0.16123 0.16123,-0.06408 0.33693,-0.09509 0.1757,-0.03101 0.355533,-0.03101 0.45682,0 0.686263,0.177766 0.23151,0.1757 0.23151,0.485758 v 0.812353 q 0,0.115755 0.02067,0.173633 0.02274,0.05581 0.08062,0.05581 0.07028,0 0.190169,-0.05994 z m -1.035595,-0.403076 v -0.49816 q -0.264583,0.107487 -0.386539,0.194303 -0.121957,0.08475 -0.121957,0.231511 0,0.105419 0.05995,0.16123 0.06201,0.05581 0.142627,0.05581 0.07648,0 0.150895,-0.04134 0.07648,-0.04341 0.155029,-0.103353 z m 3.576006,0.508496 h -0.74414 v -1.134813 q 0,-0.173633 -0.05788,-0.30179 -0.05581,-0.130225 -0.248047,-0.130225 -0.09095,0 -0.16123,0.03514 -0.06821,0.03307 -0.124024,0.08682 -0.05374,0.05374 -0.09095,0.103353 -0.03721,0.04961 -0.07648,0.10542 v 1.236099 h -0.74414 v -2.104262 h 0.74414 v 0.30179 q 0.1757,-0.188102 0.351399,-0.262516 0.177767,-0.07648 0.394808,-0.07648 0.756542,0 0.756542,0.90537 z m 2.672703,0 H 46.572441 V 32.57887 q -0.117822,0.09922 -0.250113,0.163297 -0.130225,0.06408 -0.361735,0.06408 -0.229443,0 -0.450618,-0.113688 -0.221175,-0.113688 -0.363802,-0.353466 -0.142627,-0.241846 -0.142627,-0.607715 0,-0.28732 0.107487,-0.537434 0.107487,-0.252181 0.33693,-0.409277 0.229443,-0.157096 0.562239,-0.157096 0.206706,0 0.334863,0.04547 0.128158,0.04548 0.227376,0.115755 v -0.8847 h 0.746207 z m -0.746207,-0.669726 v -0.804084 q -0.130224,-0.07235 -0.204638,-0.103353 -0.07235,-0.03101 -0.171566,-0.03101 -0.175699,0 -0.293522,0.148828 -0.115755,0.148828 -0.115755,0.405143 0,0.279052 0.121957,0.40721 0.124023,0.12609 0.28732,0.12609 0.134359,0 0.217041,-0.04134 0.08268,-0.04341 0.159163,-0.107487 z m 4.566125,-1.434536 -0.830956,2.104262 h -0.469221 l -0.469222,-1.147216 -0.467155,1.147216 h -0.469221 l -0.851627,-2.104262 h 0.754475 l 0.384473,1.062466 0.411344,-1.062466 h 0.473355 l 0.415478,1.062466 0.37207,-1.062466 z m 0.99012,-0.485758 q 0,0.130224 -0.09302,0.221174 -0.09302,0.09095 -0.221175,0.09095 -0.08682,0 -0.159164,-0.04134 -0.07028,-0.04134 -0.111621,-0.111621 -0.04134,-0.07235 -0.04134,-0.159163 0,-0.128158 0.09095,-0.221175 0.09095,-0.09302 0.221175,-0.09302 0.128157,0 0.221175,0.09302 0.09302,0.09302 0.09302,0.221175 z m 0.05994,2.59002 h -0.746207 v -2.104262 h 0.746207 z m 2.738849,0 H 54.181273 V 32.57887 q -0.117822,0.09922 -0.250114,0.163297 -0.130224,0.06408 -0.361735,0.06408 -0.229443,0 -0.450618,-0.113688 -0.221175,-0.113688 -0.363802,-0.353466 -0.142626,-0.241846 -0.142626,-0.607715 0,-0.28732 0.107487,-0.537434 0.107486,-0.252181 0.33693,-0.409277 0.229443,-0.157096 0.562239,-0.157096 0.206705,0 0.334863,0.04547 0.128157,0.04548 0.227376,0.115755 v -0.8847 h 0.746207 z m -0.746207,-0.669726 v -0.804084 q -0.130225,-0.07235 -0.204639,-0.103353 -0.07235,-0.03101 -0.171565,-0.03101 -0.1757,0 -0.293522,0.148828 -0.115755,0.148828 -0.115755,0.405143 0,0.279052 0.121956,0.40721 0.124023,0.12609 0.287321,0.12609 0.134358,0 0.217041,-0.04134 0.08268,-0.04341 0.159163,-0.107487 z m 2.877341,0.54777 q -0.115756,0.05581 -0.320394,0.107487 -0.202572,0.05168 -0.388607,0.05168 -0.804084,0 -0.804084,-0.785481 V 31.18154 h -0.33693 v -0.130224 l 0.998388,-1.016991 h 0.08475 v 0.630452 h 0.711067 v 0.516763 h -0.711067 v 0.673861 q 0,0.117822 0.01447,0.190169 0.01447,0.07235 0.08062,0.121956 0.06821,0.04754 0.204639,0.04754 0.177767,0 0.467155,-0.148828 z m 2.573484,0.121956 h -0.74414 v -1.091405 q 0,-0.0124 0,-0.02274 0.0021,-0.0124 0.0021,-0.04961 0,-0.150895 -0.06408,-0.276986 -0.06408,-0.12609 -0.243912,-0.12609 -0.14056,0 -0.248047,0.09509 -0.107487,0.09302 -0.204638,0.235644 v 1.236099 h -0.74414 V 29.9041 h 0.74414 v 1.062467 q 0.183968,-0.196371 0.363801,-0.26665 0.179834,-0.07235 0.382406,-0.07235 0.756542,0 0.756542,0.849559 z"
       id="text4-7"
       aria-label="Bandwidth" />
    <path
       style="font-weight:bold;font-size:4.23333px;font-family:'Gill Sans';-inkscape-font-specification:'Gill Sans Bold';fill:#1a1a1a;stroke-width:0.079"
       d="M 72.161008,32.742748 H 71.2329 l -0.225309,-0.508495 q -0.124024,-0.279053 -0.223242,-0.40721 -0.09922,-0.130225 -0.194304,-0.165365 -0.09302,-0.03721 -0.241845,-0.03721 h -0.09715 v 1.118277 h -0.864029 v -2.864939 h 1.469677 q 0.355533,0 0.582909,0.144694 0.227376,0.144694 0.326595,0.3514 0.101286,0.206705 0.101286,0.39274 0,0.217041 -0.08475,0.367936 -0.08268,0.148828 -0.175699,0.217041 -0.09302,0.06821 -0.208773,0.130224 0.138493,0.08062 0.227376,0.192237 0.09095,0.109553 0.24598,0.446484 z M 70.98692,30.78318 q 0,-0.198438 -0.130224,-0.276986 -0.130225,-0.07855 -0.423747,-0.07855 h -0.181901 v 0.690397 h 0.186035 q 0.31626,0 0.432015,-0.06821 0.117822,-0.07028 0.117822,-0.26665 z m 3.542933,1.087271 h -1.482078 q 0.04341,0.192236 0.212906,0.314192 0.169499,0.121957 0.384473,0.121957 0.376204,0 0.830956,-0.21084 v 0.460953 q -0.163297,0.08475 -0.396875,0.155029 -0.23151,0.06821 -0.591178,0.06821 -0.388606,0 -0.661457,-0.144694 -0.272852,-0.144694 -0.409277,-0.39274 -0.134359,-0.248047 -0.134359,-0.562239 0,-0.310059 0.134359,-0.553971 0.136425,-0.24598 0.409277,-0.384473 0.272851,-0.140559 0.661457,-0.140559 0.256315,0 0.494027,0.111621 0.239778,0.109554 0.39274,0.361734 0.155029,0.250114 0.155029,0.646989 z m -0.698664,-0.367936 q 0,-0.202572 -0.101286,-0.322461 -0.09922,-0.121956 -0.287321,-0.121956 -0.186035,0 -0.30179,0.124023 -0.113688,0.121957 -0.113688,0.320394 z m 2.709909,0.626318 q 0,0.289388 -0.212907,0.471288 -0.210839,0.179834 -0.628385,0.179834 -0.233577,0 -0.415478,-0.04134 -0.181901,-0.04341 -0.396874,-0.121956 v -0.529166 q 0.188102,0.107487 0.326594,0.163297 0.138493,0.05581 0.303858,0.05581 0.279052,0 0.279052,-0.152963 0,-0.05168 -0.04134,-0.09095 -0.03927,-0.04134 -0.14056,-0.09095 -0.09922,-0.05168 -0.26665,-0.121957 -0.206706,-0.09095 -0.351399,-0.243912 -0.144694,-0.152962 -0.144694,-0.374137 0,-0.157097 0.09508,-0.30179 0.09715,-0.144694 0.291455,-0.235645 0.194303,-0.09302 0.469222,-0.09302 0.06615,0 0.167431,0.01033 0.103353,0.0083 0.258382,0.04754 0.157096,0.03927 0.297656,0.111621 v 0.514697 q -0.06615,-0.03927 -0.111621,-0.06615 -0.04341,-0.02687 -0.117822,-0.05994 -0.07441,-0.03307 -0.1757,-0.05788 -0.09922,-0.02687 -0.204638,-0.02687 -0.128158,0 -0.1757,0.04961 -0.04754,0.04961 -0.04754,0.09922 0,0.05168 0.04961,0.09715 0.04961,0.04341 0.221175,0.109554 0.248047,0.09509 0.396875,0.19637 0.148828,0.09922 0.210839,0.219108 0.06408,0.119889 0.06408,0.283187 z m 2.726447,-0.440283 q 0,0.314192 -0.136426,0.560172 -0.136426,0.24598 -0.409277,0.388606 -0.270784,0.142627 -0.661458,0.142627 -0.390673,0 -0.663525,-0.142627 -0.270784,-0.142626 -0.40721,-0.388606 -0.134358,-0.24598 -0.134358,-0.560172 0,-0.237711 0.07441,-0.432015 0.07648,-0.194303 0.229443,-0.343131 0.155029,-0.150895 0.380338,-0.23151 0.225309,-0.08061 0.520898,-0.08061 0.297656,0 0.525032,0.08268 0.229444,0.08062 0.378272,0.227376 0.150895,0.146761 0.227376,0.343131 0.07648,0.196371 0.07648,0.434082 z m -0.783414,0 q 0,-0.250114 -0.109554,-0.390674 -0.107487,-0.142626 -0.314193,-0.142626 -0.204638,0 -0.314192,0.142626 -0.107487,0.14056 -0.107487,0.390674 0,0.248047 0.109554,0.39274 0.109554,0.144694 0.312125,0.144694 0.206706,0 0.314193,-0.142626 0.109554,-0.144694 0.109554,-0.394808 z m 3.416842,1.054198 h -0.74414 v -1.134813 q 0,-0.173633 -0.05788,-0.30179 -0.05581,-0.130225 -0.248047,-0.130225 -0.09095,0 -0.16123,0.03514 -0.06821,0.03307 -0.124024,0.08682 -0.05374,0.05374 -0.09095,0.103353 -0.03721,0.04961 -0.07648,0.10542 v 1.236099 h -0.74414 v -2.104262 h 0.74414 v 0.30179 q 0.175699,-0.188102 0.351399,-0.262516 0.177767,-0.07648 0.394808,-0.07648 0.756542,0 0.756542,0.90537 z m 2.629295,-0.10542 q -0.163297,0.06408 -0.30179,0.103353 -0.138493,0.03927 -0.332796,0.03927 -0.183968,0 -0.256315,-0.06408 -0.07235,-0.06615 -0.103353,-0.159164 -0.119889,0.09715 -0.26665,0.161231 -0.146761,0.06201 -0.384472,0.06201 -0.229443,0 -0.37207,-0.07855 -0.14056,-0.08062 -0.198438,-0.200504 -0.05581,-0.121957 -0.05581,-0.250114 0,-0.194303 0.09715,-0.320394 0.09922,-0.128157 0.264583,-0.208772 0.165364,-0.08062 0.438215,-0.167432 0.15503,-0.04961 0.233578,-0.07441 0.08061,-0.02687 0.119889,-0.04134 0.03927,-0.01447 0.08268,-0.03721 0,-0.152962 -0.06201,-0.239778 -0.06201,-0.08682 -0.268718,-0.08682 -0.243912,0 -0.452685,0.107487 -0.208772,0.107487 -0.382405,0.276986 v -0.570508 q 0.138493,-0.09922 0.299723,-0.16123 0.16123,-0.06408 0.33693,-0.09508 0.1757,-0.03101 0.355534,-0.03101 0.456819,0 0.686262,0.177766 0.23151,0.1757 0.23151,0.485759 v 0.812352 q 0,0.115755 0.02067,0.173633 0.02274,0.05581 0.08061,0.05581 0.07028,0 0.190169,-0.05995 z m -1.035595,-0.403075 v -0.498161 q -0.264583,0.107487 -0.386539,0.194303 -0.121956,0.08475 -0.121956,0.231511 0,0.105419 0.05994,0.16123 0.06201,0.05581 0.142627,0.05581 0.07648,0 0.150895,-0.04134 0.07648,-0.04341 0.155029,-0.103352 z m 3.576006,0.508495 h -0.74414 v -1.134813 q 0,-0.173633 -0.05788,-0.30179 -0.05581,-0.130225 -0.248047,-0.130225 -0.09095,0 -0.16123,0.03514 -0.06821,0.03307 -0.124023,0.08682 -0.05374,0.05374 -0.09095,0.103353 -0.03721,0.04961 -0.07648,0.10542 v 1.236099 h -0.74414 v -2.104262 h 0.74414 v 0.30179 q 0.1757,-0.188102 0.351399,-0.262516 0.177767,-0.07648 0.394808,-0.07648 0.756542,0 0.756542,0.90537 z m 2.248958,-0.09715 q -0.09302,0.03514 -0.19637,0.06614 -0.103353,0.02894 -0.233577,0.04754 -0.128158,0.02067 -0.28112,0.02067 -0.345198,0 -0.584977,-0.115755 -0.237711,-0.117822 -0.367936,-0.293522 -0.128157,-0.177767 -0.177766,-0.361734 -0.04961,-0.183968 -0.04961,-0.324528 0,-0.14056 0.04961,-0.324528 0.05168,-0.183968 0.177766,-0.355533 0.126091,-0.171566 0.363802,-0.287321 0.239779,-0.115755 0.589111,-0.115755 0.233577,0 0.380338,0.03307 0.146761,0.03307 0.297656,0.08888 v 0.584977 q -0.363802,-0.115755 -0.56844,-0.115755 -0.198437,0 -0.353467,0.119889 -0.152962,0.119889 -0.152962,0.37207 0,0.167431 0.07648,0.283186 0.07648,0.113688 0.194304,0.167432 0.117822,0.05374 0.235644,0.05374 0.111621,0 0.254248,-0.03307 0.142627,-0.03307 0.347265,-0.09508 z m 2.519739,-0.775146 h -1.482079 q 0.04341,0.192236 0.212907,0.314192 0.169499,0.121957 0.384472,0.121957 0.376205,0 0.830957,-0.21084 v 0.460953 q -0.163298,0.08475 -0.396875,0.155029 -0.23151,0.06821 -0.591178,0.06821 -0.388606,0 -0.661458,-0.144694 -0.272851,-0.144694 -0.409277,-0.39274 -0.134358,-0.248047 -0.134358,-0.562239 0,-0.310059 0.134358,-0.553971 0.136426,-0.24598 0.409277,-0.384473 0.272852,-0.140559 0.661458,-0.140559 0.256315,0 0.494026,0.111621 0.239779,0.109554 0.392741,0.361734 0.155029,0.250114 0.155029,0.646989 z m -0.698665,-0.367936 q 0,-0.202572 -0.101285,-0.322461 -0.09922,-0.121956 -0.287321,-0.121956 -0.186035,0 -0.30179,0.124023 -0.113688,0.121957 -0.113688,0.320394 z"
       id="text4-7-7"
       aria-label="Resonance" />
  </g>
  <g
     inkscape:label="components"
     inkscape:groupmode="layer"
     id="layer1"
     style="display:none">
    <circle
       style="fill:#ff0000;stroke-width:0.0367505"
       id="path1"
       cx="14.157086"
       cy="21.515856"
       r="1.5"
       inkscape:label="CenterFrequency" />
    <circle
       style="fill:#ff0000;stroke-width:0.0367505"
       id="path1-0"
       cx="13.082132"
       cy="47.65657"
       r="1.5"
       inkscape:label="NumPoles" />
    <circle
       style="fill:#ff0000;stroke-width:0.0367505"
       id="path1-3"
       cx="48.577953"
       cy="49.371937"
       r="1.5"
       inkscape:label="PoleGap" />
    <circle
       style="fill:#ff0000;stroke-width:0.0367505"
       id="path1-9"
       cx="81.404167"
       cy="48.860416"
       r="1.5"
       inkscape:label="NotchBandpass" />
    <circle
       style="fill:#ff0000;stroke-width:0.0367505"
       id="path1-1"
       cx="69.158875"
       cy="76.549797"
       r="1.5"
       inkscape:label="StereoWidth" />
    <circle
       style="fill:#00ff00;stroke-width:0.0367505"
       id="path1-1-2"
       cx="5.3135495"
       cy="109.09016"
       r="1.5"
       inkscape:label="InLeft" />
    <circle
       style="fill:#00ff00;stroke-width:0.0367505"
       id="path1-1-2-1"
       cx="5.4299493"
       cy="122.92609"
       r="1.5"
       inkscape:label="InRight" />
    <circle
       style="fill:#00ff00;stroke-width:0.0367505"
       id="path1-1-2-8"
       cx="18.585026"
       cy="109.79569"
       r="1.5"
       inkscape:label="CenterFrequencyCV" />
    <circle
       style="fill:#00ff00;stroke-width:0.0367505"
       id="path1-1-2-1-1"
       cx="19.325838"
       cy="123.0072"
       r="1.5"
       inkscape:label="PoleGapCV" />
    <circle
       style="fill:#00ff00;stroke-width:0.0367505"
       id="path1-1-2-0"
       cx="34.184811"
       cy="110.55766"
       r="1.5"
       inkscape:label="BandwidthCV" />
    <circle
       style="fill:#00ff00;stroke-width:0.0367505"
       id="path1-1-2-1-8"
       cx="34.925625"
       cy="123.76916"
       r="1.5"
       inkscape:label="NotchBandpassCV" />
    <circle
       style="fill:#00ff00;stroke-width:0.0367505"
       id="path1-1-2-13"
       cx="52.338696"
       cy="110.08144"
       r="1.5"
       inkscape:label="ResonanceCV" />
    <circle
       style="fill:#00ff00;stroke-width:0.0367505"
       id="path1-1-2-1-4"
       cx="53.07951"
       cy="123.29297"
       r="1.5"
       inkscape:label="AOECV" />
    <circle
       style="fill:#00ff00;stroke-width:0.0367505"
       id="path1-1-2-13-0"
       cx="71.505096"
       cy="109.98628"
       r="1.5"
       inkscape:label="NumPolesCV" />
    <circle
       style="fill:#00ff00;stroke-width:0.0367505"
       id="path1-1-2-1-4-19"
       cx="72.245911"
       cy="123.1978"
       r="1.5"
       inkscape:label="WidthCV" />
    <circle
       style="fill:#0000ff;stroke-width:0.0367505"
       id="path1-1-2-13-7"
       cx="90.946693"
       cy="109.6017"
       r="1.5"
       inkscape:label="OutLeft" />
    <circle
       style="fill:#0000ff;stroke-width:0.0367505"
       id="path1-1-2-1-4-1"
       cx="91.687531"
       cy="122.8132"
       r="1.5"
       inkscape:label="OutRight" />
    <circle
       style="fill:#ff0000;stroke-width:0.0367505"
       id="path1-5"
       cx="49.088585"
       cy="21.849796"
       r="1.5"
       inkscape:label="Bandwidth" />
    <circle
       style="fill:#ff0000;stroke-width:0.0367505"
       id="path1-8"
       cx="78.520195"
       cy="21.525679"
       r="1.5"
       inkscape:label="Resonance" />
    <circle
       style="fill:#ff0000;stroke-width:0.0367505"
       id="path1-1-6"
       cx="23.534943"
       cy="78.514801"
       r="1.5"
       inkscape:label="AllOddEven" />
  </g>
</svg>
